<?xml version="1.0" standalone="yes"?>
<svg xmlns="http://www.w3.org/2000/svg" width="1920" height="1440">
<!-- <path style="fill:#f8f6fd; stroke:none;" d="M0 0L0 1440L1920 1440L1920 0L0 0z"/> -->
<path style="fill:#f47f76; stroke:none;" d="M949 361L950 362L949 361z"/>
<path style="fill:#00c2fc; stroke:none;" d="M950 361L950 362L954 362L950 361z"/>
<path style="fill:#00c2fc; stroke:none;" d="M954 361L955 362L954 361z"/>
<path style="fill:#373d5e; stroke:none;" d="M882 492C903.926 483.5 898.361 453.15 919 444.337C945.865 432.865 974.792 454.237 1003 449C1006.1 462.062 1015.21 478.165 1027 485C1033.79 450.004 1045.25 414.672 1017.83 384C991.236 354.256 939.111 354.157 907 375.749C898.855 381.226 896.706 389.052 890.302 395.436C882.313 403.398 871.285 401.81 866.549 415C856.708 442.401 874.991 467.116 882 492z"/>
<path style="fill:#00c2fc; stroke:none;" d="M974 361L974 362L978 362L974 361M942 362L942 363L945 363L942 362z"/>
<path style="fill:#00C2FC; stroke:none;" d="M945 362L946 363L945 362M981 362L982 363L981 362z"/>
<path style="fill:#00c2fc; stroke:none;" d="M982.667 362.333L983.333 362.667L982.667 362.333M937.667 363.333L938.333 363.667L937.667 363.333z"/>
<path style="fill:#00c2fc; stroke:none;" d="M939 363L940 364L939 363z"/>
<path style="fill:#00c2fc; stroke:none;" d="M986 363L987 364L986 363M933.667 364.333L934.333 364.667L933.667 364.333M989 364L990 365L989 364M929.667 365.333L930.333 365.667L929.667 365.333M991 365L992 366L991 365M926 366L927 367L926 366z"/>
<path style="fill:#00c2fc; stroke:none;" d="M927 366L928 367L927 366z"/>
<path style="fill:#00c2fc; stroke:none;" d="M994 366L995 367L994 366M923 367L924 368L923 367M996 367L997 368L996 367M920.667 368.333L921.333 368.667L920.667 368.333M998 368L999 369L998 368M918 369L919 370L918 369M916 370L917 371L916 370M1001 370L1002 371L1001 370M914 371L915 372L914 371M1003 371L1004 372L1003 371M912 372L913 373L912 372M1004 372L1005 373L1004 372M910 373L911 374L910 373M1006 373L1007 374L1006 373z"/>
<path style="fill:#f47f76; stroke:none;" d="M908 374L909 375L908 374z"/>
<path style="fill:#00c2fc; stroke:none;" d="M1007 374L1008 375L1007 374M907 375L908 376L907 375z"/>
<path style="fill:#00c2fc; stroke:none;" d="M1008 375L1009 376L1008 375z"/>
<path style="fill:#f47f76; stroke:none;" d="M905 376L906 377L905 376z"/>
<path style="fill:#00c2fc; stroke:none;" d="M904 377L905 378L904 377M1011 377L1012 378L1011 377M903 378L904 379L903 378M1012 378L1013 379L1012 378M1013 379L1014 380L1013 379M1014 380L1015 381L1014 380M1015 381L1016 382L1015 381M1016 382L1017 383L1016 382M1017 383L1018 384L1017 383M1018 384L1019 385L1018 384M896 385L897 386L896 385M895 386L896 387L895 386M1020 387L1021 388L1020 387M894 388L895 389L894 388M1021 388L1022 389L1021 388M893 389L894 390L893 389M892 391L893 392L892 391M1023 391L1024 392L1023 391M891 393L892 394L891 393z"/>
<path style="fill:#00c2fc; stroke:none;" d="M891 394L892 395L891 394z"/>
<path style="fill:#00c2fc; stroke:none;" d="M1025 394L1026 395L1025 394M890 396L891 397L890 396M1026 396L1027 397L1026 396M636 397.558C630.482 399.006 625.677 403.612 623.854 409C622.097 414.194 623 420.591 623 426C623 439.618 618.258 462.331 631.015 471.347C639.48 477.33 653.224 475 663 475L723 475C732.485 475 743.876 476.698 753 473.776C758.526 472.007 762.759 468.362 765.045 462.999C767.476 457.295 767 451.054 767 445C767 431.068 771.478 408.748 757.996 399.703C749.887 394.263 735.345 397 726 397L666 397C656.643 397 645.079 395.176 636 397.558M885.667 397.333L886.333 397.667L885.667 397.333z"/>
<path style="fill:#00c2fc; stroke:none;" d="M744 398L745 399L744 398z"/>
<path style="fill:#00c2fc; stroke:none;" d="M882 398L883 399L882 398M1027 398L1028 399L1027 398M880 399L881 400L880 399z"/>
<path style="fill:#00c2fc; stroke:none;" d="M752 400L753 401L752 400z"/>
<path style="fill:#00c2fc; stroke:none;" d="M878 400L879 401L878 400M1028 400L1029 401L1028 400z"/>
<path style="fill:#00c2fc; stroke:none;" d="M757 401L758 402L757 401M630 402L631 403L630 402M759 402L761 404L759 402z"/>
<path style="fill:#00c2fc; stroke:none;" d="M875 402L876 403L875 402M1029 402L1030 403L1029 402M874 403L875 404L874 403M873 404L874 405L873 404M1030 404L1031 405L1030 404z"/>
<path style="fill:#00c2fc; stroke:none;" d="M762 405L763 406L762 405z"/>
<path style="fill:#00c2fc; stroke:none;" d="M872 405L873 406L872 405z"/>
<path style="fill:#00c2fc; stroke:none;" d="M628.333 406.667L628.667 407.333L628.333 406.667M756 406L757 407L756 406z"/>
<path style="fill:#00c2fc; stroke:none;" d="M871 406L872 407L871 406M870 407L871 408L870 407M1031 407L1032 408L1031 407z"/>
<path style="fill:#00c2fc; stroke:none;" d="M665 408L666 409L665 408M668 408L669 409L668 408M697 408L698 409L697 408M714 408L715 409L714 408M723 408L724 409L723 408M731 408L732 409L731 408M734 408L735 409L734 408M660 409L661 410L660 409M663 409L664 410L663 409M671 409L672 410L671 409M719 409L720 410L719 409M727 409L728 410L727 409z"/>
<path style="fill:#f8f6fd; stroke:none;" d="M664.995 410.851C659.326 412.413 641.896 430.013 642.466 436C642.917 440.742 648.873 444.731 651.83 448C655.146 451.665 661.8 462.36 667.852 460.338C678.889 456.649 656.167 440.077 655.631 436C654.803 429.69 667.364 423.384 669.968 418.001C671.766 414.284 669.611 409.579 664.995 410.851z"/>
<path style="fill:#00c2fc; stroke:none;" d="M698 410L699 411L698 410z"/>
<path style="fill:#f8f6fd; stroke:none;" d="M701.103 410.851C697.153 412.072 696.087 417.637 694.808 421C690.822 431.48 685.822 442.171 682.917 452.999C682.006 456.394 683.141 461.698 687.911 460.288C691.956 459.092 693.125 453.414 694.424 450C698.325 439.756 703.024 429.529 706.098 419C707.149 415.4 706.563 409.164 701.103 410.851z"/>
<path style="fill:#00c2fc; stroke:none;" d="M713 410L714 411L713 410z"/>
<path style="fill:#f8f6fd; stroke:none;" d="M736 435C733.008 437.992 729.964 440.942 727.039 444C725.006 446.127 711.903 463.501 724.015 460.288C730.952 458.448 743.154 444.509 745.968 438C749.038 430.896 733.773 418.348 729 414.109C726.97 412.306 724.187 409.871 721.228 410.851C717.646 412.038 718.269 416.217 719.858 418.714C723.76 424.846 730.111 430.852 736 435z"/>
<path style="fill:#00c2fc; stroke:none;" d="M730 410L731 411L730 410M733 410L734 411L733 410z"/>
<path style="fill:#00c2fc; stroke:none;" d="M868 410L869 411L868 410M1032 410L1033 411L1032 410z"/>
<path style="fill:#00c2fc; stroke:none;" d="M671 411L672 412L671 411M707 411L708 412L707 411M717 411L718 412L717 411M762.333 411.667L762.667 412.333L762.333 411.667M657 412L658 413L657 412M660 412L658 413L658 414L660 412M696 412L697 413L696 412M708.333 412.667L708.667 413.333L708.333 412.667z"/>
<path style="fill:#00c2fc; stroke:none;" d="M867 412L868 413L867 412M660 413L661 414L660 413M1033.33 413.667L1033.67 414.333L1033.33 413.667M866 414L867 415L866 414z"/>
<path style="fill:#00c2fc; stroke:none;" d="M657 415L655 418L657 415M710 415L711 416L710 415M731 415L732 416L731 415M652 416L654 418L652 416z"/>
<path style="fill:#00c2fc; stroke:none;" d="M657 416L658 417L657 416z"/>
<path style="fill:#00c2fc; stroke:none;" d="M690 416L691 417L690 416M713 416L714 417L713 416M735 416L736 417L735 416M738.667 416.333L739.333 416.667L738.667 416.333z"/>
<path style="fill:#00c2fc; stroke:none;" d="M656 417L657 418L656 417z"/>
<path style="fill:#00c2fc; stroke:none;" d="M733 417L737 421L733 417z"/>
<path style="fill:#00c2fc; stroke:none;" d="M865 417L866 418L865 417M1034.33 417.667L1034.67 418.333L1034.33 417.667z"/>
<path style="fill:#00c2fc; stroke:none;" d="M694 418L695 419L694 418z"/>
<path style="fill:#00c2fc; stroke:none;" d="M733 418L734 419L733 418z"/>
<path style="fill:#00c2fc; stroke:none;" d="M865 418L866 419L865 418M648 419L649 420L648 419M670 419L671 420L670 419M718 419L719 420L718 419z"/>
<path style="fill:#00c2fc; stroke:none;" d="M734 419L735 420L734 419z"/>
<path style="fill:#00c2fc; stroke:none;" d="M716 420L719 423L716 420z"/>
<path style="fill:#00c2fc; stroke:none;" d="M735 420L736 421L735 420z"/>
<path style="fill:#00c2fc; stroke:none;" d="M651 421L652 422L651 421z"/>
<path style="fill:#00c2fc; stroke:none;" d="M667 421L668 422L667 421z"/>
<path style="fill:#00c2fc; stroke:none;" d="M668 421L669 422L668 421M720 421L721 422L720 421z"/>
<path style="fill:#f47f76; stroke:none;" d="M722 421L723 422L722 421z"/>
<path style="fill:#00c2fc; stroke:none;" d="M738.333 421.667L738.667 422.333L738.333 421.667z"/>
<path style="fill:#00c2fc; stroke:none;" d="M864.333 421.667L864.667 422.333L864.333 421.667z"/>
<path style="fill:#00c2fc; stroke:none;" d="M649 422L650 423L649 422M667 422L668 423L667 422M669 422L670 423L669 422M721 422L724 425L721 422z"/>
<path style="fill:#00c2fc; stroke:none;" d="M722 422L723 423L722 422M1035 422L1035 425L1036 425L1035 422z"/>
<path style="fill:#00c2fc; stroke:none;" d="M670 423L671 424L670 423z"/>
<path style="fill:#00c2fc; stroke:none;" d="M723 423L724 424L723 423z"/>
<path style="fill:#00c2fc; stroke:none;" d="M740 423L741 424L740 423M864 423L865 424L864 423M666 425L667 426L666 425M689.333 425.667L689.667 426.333L689.333 425.667M743 425L744 426L743 425M1035 425L1036 426L1035 425M643 426L644 427L643 426M725.333 426.667L725.667 427.333L725.333 426.667M645 427L646 428L645 427M722 427L723 428L722 427M661 428L662 429L661 428M724 429L725 430L724 429M728 429L730 431L728 429z"/>
<path style="fill:#00c2fc; stroke:none;" d="M729 429L730 430L729 429z"/>
<path style="fill:#00c2fc; stroke:none;" d="M745 429L747 431L745 429M659 431L660 432L659 431M662 431L663 432L662 431z"/>
<path style="fill:#f47f76; stroke:none;" d="M1036 431L1037 432L1036 431z"/>
<path style="fill:#00c2fc; stroke:none;" d="M641 432L642 433L641 432M729 432L728 434L729 432M731 432L732 433L731 432M750 432L751 433L750 432z"/>
<path style="fill:#00c2fc; stroke:none;" d="M1036 432L1036 444L1037 444L1036 432z"/>
<path style="fill:#00c2fc; stroke:none;" d="M657 433L656 435L657 433M663 434L664 435L663 434M751 434L752 435L751 434M733 436L734 437L733 436M750 436L751 437L750 436M641 438L642 441L643 441L641 438z"/>
<path style="fill:#00c2fc; stroke:none;" d="M642 438L643 439L642 438M864 438L864 442L865 442L864 438z"/>
<path style="fill:#00c2fc; stroke:none;" d="M640 439L641 440L640 439M747 439L746 441L747 439M671 440L672 441L671 440M682 440L683 441L682 440M684 440L685 441L684 440M720 440L721 441L720 440M729 440L728 442L729 440z"/>
<path style="fill:#f47f76; stroke:none;" d="M1219 440L1220 441L1219 440z"/>
<path style="fill:#00c2fc; stroke:none;" d="M1220 440L1220 441L1433 441L1413 440L1370 440L1220 440z"/>
<path style="fill:#00c2fc; stroke:none;" d="M643 441L644 442L643 441M726 441L727 442L726 441z"/>
<path style="fill:#00c2fc; stroke:none;" d="M729 441L730 442L729 441z"/>
<path style="fill:#00c2fc; stroke:none;" d="M928.667 441.333L929.333 441.667L928.667 441.333z"/>
<path style="fill:#f47f76; stroke:none;" d="M882 493L877 474C863.689 480.906 859.396 501.967 871.105 512.671C875.942 517.093 884.208 516.948 888.298 521.433C892.554 526.099 894.264 534.509 897.684 540C902.182 547.221 909.848 552.974 913.821 560.17C920.519 572.3 905.081 588.645 920 596.676C938.296 606.524 963.614 606.053 983 600.115C988.801 598.338 1000.16 594.935 1002.87 588.896C1004.38 585.511 1001.67 580.73 1002 577C991.844 563.663 1010.85 546.085 1016.14 534C1018.37 528.895 1019 520.641 1022.73 516.51C1027.18 511.575 1033.95 511.485 1037.77 504.999C1043.91 494.594 1041.51 477.413 1030 472L1027 485C1015.05 476.58 1007.44 462.637 1003 449C993.866 450.18 986.229 451.212 977 449.537C955.748 445.679 929.873 432.961 910.109 448.789C904.523 453.262 903.836 462.707 900.971 469C896.544 478.728 890.245 486.286 882 493z"/>
<path style="fill:#00c2fc; stroke:none;" d="M941 441L942 442L941 441z"/>
<path style="fill:#00c2fc; stroke:none;" d="M942.667 441.333L943.333 441.667L942.667 441.333z"/>
<path style="fill:#00c2fc; stroke:none;" d="M1215 441L1216 442L1215 441z"/>
<path style="fill:#373d5e; stroke:none;" d="M1216 441.533C1202.58 444.773 1201 458.49 1201 470C1201 473.333 1199.64 480.584 1203.32 482.397C1207.34 484.377 1214.6 483 1219 483L1257 483L1393 483L1435 483C1438.93 483 1447.15 484.544 1450.4 481.972C1453.35 479.633 1452 472.315 1452 469C1452 456.665 1448.96 442.327 1434 441.093C1387.36 437.249 1338.81 441 1292 441L1242 441C1233.76 441 1224.03 439.593 1216 441.533z"/>
<path style="fill:#00c2fc; stroke:none;" d="M1437 441L1438 442L1437 441z"/>
<path style="fill:#00c2fc; stroke:none;" d="M644 442L645 443L644 442M683.333 442.667L683.667 443.333L683.333 442.667M685 442L686 443L685 442M721.333 442.667L721.667 443.333L721.333 442.667M724 442L725 443L724 442M744 442L745 443L744 442z"/>
<path style="fill:#00c2fc; stroke:none;" d="M924 442L925 443L924 442z"/>
<path style="fill:#00c2fc; stroke:none;" d="M948 442L949 443L948 442z"/>
<path style="fill:#00c2fc; stroke:none;" d="M1212 442L1213 443L1212 442M1440 442L1441 443L1440 442z"/>
<path style="fill:#00c2fc; stroke:none;" d="M642 443L643 444L642 443M645 443L646 444L645 443M663 443L664 444L663 443M698 443L699 444L698 443M725 443L723 445L723 446L725 443M746 443L747 444L746 443M920 443L921 444L920 443z"/>
<path style="fill:#00c2fc; stroke:none;" d="M952 443L953 444L952 443z"/>
<path style="fill:#00c2fc; stroke:none;" d="M953 443L954 444L953 443z"/>
<path style="fill:#f47f76; stroke:none;" d="M1210 443L1211 444L1210 443M1442 443L1443 444L1442 443z"/>
<path style="fill:#00c2fc; stroke:none;" d="M750 444L751 445L750 444M918 444L919 445L918 444M957 444L958 445L957 444z"/>
<path style="fill:#f47f76; stroke:none;" d="M1036 444L1037 445L1036 444z"/>
<path style="fill:#00c2fc; stroke:none;" d="M1209 444L1210 445L1209 444M1443 444L1444 445L1443 444z"/>
<path style="fill:#00c2fc; stroke:none;" d="M647 445L646 446L646 447L647 448L648 448L649 447L649 446L647 445M664 445L664 446L666 448L667 448L664 445M697 445L698 446L697 445z"/>
<path style="fill:#00c2fc; stroke:none;" d="M725 445L726 446L725 445M740 445L736 450L740 445z"/>
<path style="fill:#00c2fc; stroke:none;" d="M741 445L742 446L741 445z"/>
<path style="fill:#00c2fc; stroke:none;" d="M865.333 445.667L865.667 446.333L865.333 445.667M960 445L961 446L960 445z"/>
<path style="fill:#00c2fc; stroke:none;" d="M1208 445L1209 446L1208 445M1444 445L1445 446L1444 445z"/>
<path style="fill:#00c2fc; stroke:none;" d="M647 446L648 447L647 446M664 446L666 448L666 446L664 446z"/>
<path style="fill:#00c2fc; stroke:none;" d="M721 446L722 447L721 446M740 446L741 447L740 446M964 446L965 447L964 446M644 447L645 448L644 447M701 447L702 448L701 447M703 447L704 448L703 447M722 447L723 448L722 447M739 447L740 448L739 447M968 447L969 448L968 447M682 448L683 449L682 448M738.333 448.667L738.667 449.333L738.333 448.667M910 448L911 449L910 448M972 448L973 449L972 448z"/>
<path style="fill:#00c2fc; stroke:none;" d="M1205 448L1206 449L1205 448M1447 448L1448 449L1447 448z"/>
<path style="fill:#00c2fc; stroke:none;" d="M670 449L671 450L670 449z"/>
<path style="fill:#f47f76; stroke:none;" d="M694 449L695 450L694 449z"/>
<path style="fill:#00c2fc; stroke:none;" d="M976 449L977 450L976 449z"/>
<path style="fill:#00c2fc; stroke:none;" d="M977 449L978 450L977 449z"/>
<path style="fill:#00c2fc; stroke:none;" d="M1204 449L1205 450L1204 449M1448 449L1449 450L1448 449z"/>
<path style="fill:#00c2fc; stroke:none;" d="M652 450L653 451L652 450M719 450L718 452L719 450M736.667 450.333L737.333 450.667L736.667 450.333z"/>
<path style="fill:#00c2fc; stroke:none;" d="M866.333 450.667L866.667 451.333L866.333 450.667z"/>
<path style="fill:#00c2fc; stroke:none;" d="M907 450L908 451L907 450M984 450L984 451L994 451L984 450z"/>
<path style="fill:#00c2fc; stroke:none;" d="M994 450L995 451L994 450z"/>
<path style="fill:#00c2fc; stroke:none;" d="M1035 450L1036 451L1035 450M651 451L652 452L651 451M653 451L654 452L653 451z"/>
<path style="fill:#00c2fc; stroke:none;" d="M1035 451L1035 454L1036 454L1035 451M1203 451L1204 452L1203 451M1449 451L1450 452L1449 451z"/>
<path style="fill:#00c2fc; stroke:none;" d="M906 452L907 453L906 452M652 453L653 454L652 453M655 453L659 457L655 453z"/>
<path style="fill:#00c2fc; stroke:none;" d="M656 453L657 454L656 453z"/>
<path style="fill:#00c2fc; stroke:none;" d="M681 453L682 454L681 453z"/>
<path style="fill:#00c2fc; stroke:none;" d="M1202 453L1203 454L1202 453M1450 453L1451 454L1450 453M657 454L658 455L657 454M867 454L868 455L867 454z"/>
<path style="fill:#00c2fc; stroke:none;" d="M1225 454L1226 455L1225 454z"/>
<path style="fill:#00c2fc; stroke:none;" d="M1226 454L1226 455L1301 455L1278 454L1226 454z"/>
<path style="fill:#00c2fc; stroke:none;" d="M649 455L650 456L649 455M654 455L655 456L654 455z"/>
<path style="fill:#00c2fc; stroke:none;" d="M658 455L659 456L658 455z"/>
<path style="fill:#00c2fc; stroke:none;" d="M743 455L744 456L743 455M1221 455L1222 456L1221 455z"/>
<path style="fill:#00c2fc; stroke:none;" d="M1222 455L1223 456L1222 455z"/>
<path style="fill:#f8f6fd; stroke:none;" d="M1223.04 455.653C1217.29 457.568 1215.86 464.734 1222.04 467.258C1227.6 469.526 1236.08 468 1242 468L1286 468C1291.74 468 1301.82 469.894 1306.57 465.991C1314.42 459.54 1301.99 455.065 1297 455.004C1280.34 454.798 1263.66 455 1247 455C1239.71 455 1230.01 453.335 1223.04 455.653z"/>
<path style="fill:#f47f76; stroke:none;" d="M1303 455L1304 456L1303 455z"/>
<path style="fill:#00c2fc; stroke:none;" d="M1304 455L1305 456L1304 455z"/>
<path style="fill:#00c2fc; stroke:none;" d="M1399 460L1399 459L1397 458L1402 456C1398.86 454.543 1394.12 458.926 1399 460z"/>
<path style="fill:#00c2fc; stroke:none;" d="M1399 459C1394.15 462.192 1397.4 468.429 1403 467.861C1409.95 467.156 1410.96 457.344 1404 455.583C1401.79 455.024 1396.19 456.889 1399 459z"/>
<path style="fill:#00c2fc; stroke:none;" d="M1404.67 455.333L1405.33 455.667L1404.67 455.333M1426 455L1427 456L1426 455z"/>
<path style="fill:#00c2fc; stroke:none;" d="M1427.04 455.851C1419.31 458.089 1423.59 470.029 1430.89 467.238C1437.72 464.628 1433.89 453.87 1427.04 455.851z"/>
<path style="fill:#00c2fc; stroke:none;" d="M1430.67 455.333L1431.33 455.667L1430.67 455.333M715 456L716 457L715 456M762 456L763 457L762 456M764 456L765 457L764 456M905 456L906 457L905 456z"/>
<path style="fill:#00c2fc; stroke:none;" d="M1005 456L1006 457L1005 456M1201 456L1201 459L1202 459L1201 456M1220 456L1221 457L1220 456M1306 456L1307 457L1306 456z"/>
<path style="fill:#00c2fc; stroke:none;" d="M1406 456L1407 457L1406 456M1424 456L1425 457L1424 456M1432 456L1434 458L1434 456L1432 456z"/>
<path style="fill:#00c2fc; stroke:none;" d="M1451.33 456.667L1451.67 457.333L1451.33 456.667z"/>
<path style="fill:#00c2fc; stroke:none;" d="M694 457L695 458L694 457M730 457L729 459L730 457z"/>
<path style="fill:#00c2fc; stroke:none;" d="M868.333 457.667L868.667 458.333L868.333 457.667z"/>
<path style="fill:#00c2fc; stroke:none;" d="M1034 457L1035 458L1034 457z"/>
<path style="fill:#00c2fc; stroke:none;" d="M1218 457L1219 458L1218 457M1307 457L1308 458L1307 457z"/>
<path style="fill:#00c2fc; stroke:none;" d="M1404 457L1405 458L1404 457M1407 457L1408 458L1407 457M1423 457L1424 458L1423 457M659 458L659 459L661 461L662 461L659 458z"/>
<path style="fill:#00c2fc; stroke:none;" d="M661 458L662 459L661 458z"/>
<path style="fill:#00c2fc; stroke:none;" d="M1006 458L1007 459L1006 458z"/>
<path style="fill:#00c2fc; stroke:none;" d="M1034.33 458.667L1034.67 459.333L1034.33 458.667z"/>
<path style="fill:#f47f76; stroke:none;" d="M1218 458L1219 459L1218 458z"/>
<path style="fill:#00c2fc; stroke:none;" d="M1308 458L1309 459L1308 458z"/>
<path style="fill:#00c2fc; stroke:none;" d="M1408 458L1409 459L1408 458M1434 458L1435 459L1434 458M1451 458L1452 459L1451 458M626 459L627 460L626 459M657 459L658 460L657 459M671 459L672 460L671 459M717 459L718 460L717 459M1201 459L1202 460L1201 459z"/>
<path style="fill:#00c2fc; stroke:none;" d="M1217 459L1218 460L1217 459z"/>
<path style="fill:#00c2fc; stroke:none;" d="M1309 459L1310 460L1309 459M1406 459L1407 460L1406 459M1422 459L1423 460L1422 459M682 460L683 461L682 460M691 460L692 461L691 460M764 460L765 461L764 460z"/>
<path style="fill:#00c2fc; stroke:none;" d="M869.333 460.667L869.667 461.333L869.333 460.667z"/>
<path style="fill:#f47f76; stroke:none;" d="M1217 460L1218 461L1217 460z"/>
<path style="fill:#00c2fc; stroke:none;" d="M1309 460L1309 464L1310 464L1309 460z"/>
<path style="fill:#00c2fc; stroke:none;" d="M1409 460L1409 463L1410 463L1409 460M1423 460L1424 461L1423 460M1435 460L1435 464L1436 464L1435 460M663 461L664 462L663 461M670 461L671 462L670 461M689.333 461.667L689.667 462.333L689.333 461.667M718.667 461.333L719.333 461.667L718.667 461.333M726 461L727 462L726 461M668 462L669 463L668 462M680 462L681 463L680 462M692 462L694 464L692 462M724 462L725 463L724 462M1008 462L1009 463L1008 462M1033 462L1034 463L1033 462M1397 462L1398 463L1397 462M1422.33 462.667L1422.67 463.333L1422.33 462.667M630 463L628 464L628 465L632 466L630 463M659 463L660 464L659 463M664 463L665 464L664 463M686 463L687 464L686 463M717 463L718 464L717 463M735 463L736 464L735 463z"/>
<path style="fill:#00c2fc; stroke:none;" d="M870 463L871 464L870 463M903 463L904 464L903 463M1033.33 463.667L1033.67 464.333L1033.33 463.667M1217 463L1218 464L1217 463z"/>
<path style="fill:#00c2fc; stroke:none;" d="M1009 464L1010 465L1009 464M1217 464L1218 465L1217 464z"/>
<path style="fill:#00c2fc; stroke:none;" d="M1308 464L1309 465L1308 464z"/>
<path style="fill:#00c2fc; stroke:none;" d="M1396 464L1397 465L1396 464M1408 464L1409 465L1408 464M1427 464L1428 465L1427 464M1432 464L1433 465L1432 464M1434.33 464.667L1434.67 465.333L1434.33 464.667M902 465L903 466L902 465z"/>
<path style="fill:#00c2fc; stroke:none;" d="M1218 465L1219 466L1218 465z"/>
<path style="fill:#00c2fc; stroke:none;" d="M1397 465L1398 466L1397 465M1399 465L1400 466L1399 465M1423 465L1424 466L1423 465M761 466L762 467L761 466z"/>
<path style="fill:#00c2fc; stroke:none;" d="M871 466L872 467L871 466M1010 466L1011 467L1010 466M1219 466L1220 467L1219 466M1306 466L1307 467L1306 466z"/>
<path style="fill:#00c2fc; stroke:none;" d="M1406.67 466.333L1407.33 466.667L1406.67 466.333M1424 466L1425 467L1424 466M1433 466L1434 467L1433 466z"/>
<path style="fill:#00c2fc; stroke:none;" d="M1032.33 467.667L1032.67 468.333L1032.33 467.667M1221 467L1222 468L1221 467z"/>
<path style="fill:#f47f76; stroke:none;" d="M1304 467L1305 468L1304 467z"/>
<path style="fill:#00c2fc; stroke:none;" d="M1305 467L1306 468L1305 467z"/>
<path style="fill:#00c2fc; stroke:none;" d="M1399 467L1400 468L1399 467M1405 467L1406 468L1405 467M1425 467L1426 468L1425 467M1431.67 467.333L1432.33 467.667L1431.67 467.333M1223 468L1224 469L1223 468z"/>
<path style="fill:#00c2fc; stroke:none;" d="M1224 468L1224 469L1303 469L1278 468L1224 468z"/>
<path style="fill:#00c2fc; stroke:none;" d="M1401 468L1401 469L1404 469L1401 468M1428.67 468.333L1429.33 468.667L1428.67 468.333M631 469L632 470L631 469M757 469L758 470L757 469z"/>
<path style="fill:#00c2fc; stroke:none;" d="M872 469L873 470L872 469z"/>
<path style="fill:#00c2fc; stroke:none;" d="M1012 469L1013 470L1012 469M753 470L754 471L753 470z"/>
<path style="fill:#00c2fc; stroke:none;" d="M900 470L901 471L900 470z"/>
<path style="fill:#00c2fc; stroke:none;" d="M755 471L756 472L755 471z"/>
<path style="fill:#00c2fc; stroke:none;" d="M873 471L874 472L873 471M1031 471L1032 472L1031 471z"/>
<path style="fill:#f47f76; stroke:none;" d="M873 472L874 473L873 472z"/>
<path style="fill:#00c2fc; stroke:none;" d="M899 472L900 473L899 472M1014 472L1015 473L1014 472z"/>
<path style="fill:#00c2fc; stroke:none;" d="M1029 472L1030 473L1029 472z"/>
<path style="fill:#00c2fc; stroke:none;" d="M1029 473L1030 474L1029 473M874 474L875 475L874 474z"/>
<path style="fill:#00c2fc; stroke:none;" d="M875 474L876 475L875 474z"/>
<path style="fill:#00c2fc; stroke:none;" d="M877 475L878 476L877 475M1017 476L1018 477L1017 476z"/>
<path style="fill:#00c2fc; stroke:none;" d="M896 477L897 478L896 477M1018 477L1019 478L1018 477M1028 477L1029 478L1028 477z"/>
<path style="fill:#00c2fc; stroke:none;" d="M1028 478L1029 479L1028 478M878 479L879 480L878 479M895 479L896 480L895 479z"/>
<path style="fill:#00c2fc; stroke:none;" d="M879 482L880 483L879 482M1027 482L1028 483L1027 482M1201 482L1202 483L1201 482M1451 482L1450 484L1451 482z"/>
<path style="fill:#00c2fc; stroke:none;" d="M879 483L880 484L879 483M892 483L893 484L892 483z"/>
<path style="fill:#00c2fc; stroke:none;" d="M1024 483L1025 484L1024 483z"/>
<path style="fill:#00c2fc; stroke:none;" d="M1027 483L1028 484L1027 483M1201 483L1201 615C1201 629.304 1196.23 654.059 1205.56 665.957C1215.17 678.214 1241.13 673 1255 673L1395 673C1409.58 673 1438.68 678.769 1448.15 664.985C1456.76 652.448 1452 627.606 1452 613L1452 483L1318 483L1201 483z"/>
<path style="fill:#00c2fc; stroke:none;" d="M1203.67 483.333L1204.33 483.667L1203.67 483.333M1206.67 483.333L1207.33 483.667L1206.67 483.333M891 484L892 485L891 484z"/>
<path style="fill:#00c2fc; stroke:none;" d="M1025 484L1026 485L1025 484M880.333 486.667L880.667 487.333L880.333 486.667z"/>
<path style="fill:#00c2fc; stroke:none;" d="M1202 486L1203 487L1202 486z"/>
<path style="fill:#373d5e; stroke:none;" d="M931.414 490.137C927.096 492.509 928.045 505.396 933.896 502.824C939.074 500.547 937.208 486.953 931.414 490.137z"/>
<path style="fill:#00c2fc; stroke:none;" d="M934 489L935 490L934 489z"/>
<path style="fill:#373d5e; stroke:none;" d="M980.429 490.176C976.35 492.161 977.32 505.281 982.896 502.824C988.022 500.566 986.103 487.414 980.429 490.176z"/>
<path style="fill:#00c2fc; stroke:none;" d="M983 489L984 490L983 489z"/>
<path style="fill:#00c2fc; stroke:none;" d="M881 490L882 491L881 490z"/>
<path style="fill:#00c2fc; stroke:none;" d="M885 490L886 491L885 490M984 490L985 491L984 490z"/>
<path style="fill:#00c2fc; stroke:none;" d="M929 491L930 492L929 491M978 491L979 492L978 491M985 491L986 492L985 491M882 492L883 493L882 492M928 494L929 495L928 494M977 494L977 499L978 499L977 494z"/>
<path style="fill:#00c2fc; stroke:none;" d="M928 495L929 496L928 495z"/>
<path style="fill:#00c2fc; stroke:none;" d="M937.333 495.667L937.667 496.333L937.333 495.667M986 495L986 498L987 498L986 495M928 498L929 499L928 498M929 501L930 502L929 501M978 501L979 502L978 501M985 501L986 502L985 501z"/>
<path style="fill:#00c2fc; stroke:none;" d="M935 502L936 503L935 502M984 502L985 503L984 502M934 503L935 504L934 503M983 503L984 504L983 503M1224 504L1225 505L1224 504M1372 505L1374 507L1372 505M1225 506L1226 507L1225 506z"/>
<path style="fill:#f8f6fd; stroke:none;" d="M1228.15 507.028C1224.49 509.231 1225.49 513.696 1229.11 515.258C1234.76 517.696 1243.92 516 1250 516L1338 516C1345.31 516 1366.93 519.642 1372.26 514.258C1374.98 511.503 1373.43 507.277 1369.94 506.318C1362.58 504.296 1352.62 506 1345 506L1261 506C1252.68 506 1235.35 502.696 1228.15 507.028z"/>
<path style="fill:#00c2fc; stroke:none;" d="M1372 506L1373 507L1372 506z"/>
<path style="fill:#00c2fc; stroke:none;" d="M1224 508L1225 509L1224 508M1375 508L1376 509L1375 508M1224 513L1225 514L1224 513M1375 513L1376 514L1375 513M1225 515L1226 516L1225 515M1373 515L1374 516L1373 515M1227 516L1229 518L1227 516M1375 516L1376 517L1375 516M1369 517L1370 518L1369 517M1372 518L1373 519L1372 518M1227 519L1228 520L1227 519M1370 519L1371 520L1370 519M1343 528L1343 529L1346 530L1343 528M1350 528L1351 529L1350 528M1249 529L1250 530L1249 529z"/>
<path style="fill:#f8f6fd; stroke:none;" d="M1255.23 529.742C1251.04 531.701 1251.97 537.291 1256.11 538.566C1262.22 540.448 1270.64 539 1277 539L1322 539C1327.52 539 1339.14 541.174 1343.55 537.258C1352.49 529.313 1332.21 529 1329 529L1277 529C1270.86 529 1260.87 527.102 1255.23 529.742z"/>
<path style="fill:#00c2fc; stroke:none;" d="M1251 530L1248 534L1251 530M1346 532L1347 533L1346 532M1348 533L1349 534L1348 533M1249 535L1252 538L1249 535M1346 536L1347 537L1346 536M1248 537L1249 538L1248 537M1345 538L1344 540L1345 538M1253 539L1254 540L1253 539M1255 540L1256 541L1255 540M1347 540L1348 541L1347 540M1249.67 541.333L1250.33 541.667L1249.67 541.333M1336 542L1337 543L1336 542M1252 552L1251 555L1252 555L1252 552z"/>
<path style="fill:#f8f6fd; stroke:none;" d="M1255.23 552.742C1251.6 554.441 1251.6 559.559 1255.23 561.258C1260.42 563.685 1269.36 562 1275 562L1360 562C1367.04 562 1388.29 565.545 1393.4 560.397C1396.66 557.108 1393.71 552.939 1389.98 552.228C1382.45 550.795 1373.65 552 1366 552L1288 552C1279.09 552 1263.34 548.945 1255.23 552.742z"/>
<path style="fill:#00c2fc; stroke:none;" d="M1394 552L1395 553L1394 552z"/>
<path style="fill:#00c2fc; stroke:none;" d="M1252.33 553.667L1252.67 554.333L1252.33 553.667z"/>
<path style="fill:#00c2fc; stroke:none;" d="M1396 560L1397 561L1396 560M1249 561L1250 562L1249 561M1255 563L1256 564L1255 563M1393 563L1394 564L1393 563M1396 563L1397 564L1396 563M1399 563L1400 564L1399 563M1254.67 565.333L1255.33 565.667L1254.67 565.333M1392 565L1393 566L1392 565M1398 565L1399 566L1398 565M1395 566L1396 567L1395 566M1288 570L1289 571L1288 570M1289.67 574.333L1290.33 574.667L1289.67 574.333M1371.67 574.333L1372.33 574.667L1371.67 574.333z"/>
<path style="fill:#00c2fc; stroke:none;" d="M532 575L532 576L536 576L532 575z"/>
<path style="fill:#00c2fc; stroke:none;" d="M536.667 575.333L537.333 575.667L536.667 575.333z"/>
<path style="fill:#373d5e; stroke:none;" d="M516 579C516 587.949 514.786 605.677 500.576 603.587C495.622 602.859 491.391 596.398 486.015 597.736C480.734 599.051 475.398 607.738 472.52 612C468.216 618.374 457.765 634.493 460.694 642.671C462.345 647.284 469.393 648.07 472.397 651.61C474.879 654.534 474.263 660.397 473.941 663.985C473.215 672.077 461.62 670.996 460.492 678.105C458.733 689.178 470.636 706.216 477.3 714C479.684 716.784 483.117 721.419 487 722.006C491.795 722.731 495.589 717.454 500 716.527C503.93 715.701 510.797 720.11 513.566 722.753C518.401 727.368 513.05 735.927 517.603 740.062C520.254 742.469 525.629 742.695 529 743.246C538.493 744.797 560.589 746.961 568.397 739.911C571.796 736.841 569.256 730.035 570.318 726.043C571.413 721.925 576.487 719.564 580 717.754C587.62 713.828 591.854 723.696 598.985 722.044C602.709 721.181 605.555 716.75 607.855 714C615.419 704.956 621.671 693.581 624.246 682.001C626.093 673.695 617.846 673.368 613.318 668.61C610.336 665.477 610.697 660.048 611.059 656.015C611.735 648.473 620.559 649.008 623.958 643.471C628.523 636.033 616.661 617.964 612.64 612C609.684 607.614 603.889 597.923 598 597.593C593.258 597.326 589.583 602.304 585.17 603.359C581.592 604.214 575.864 600.145 573.148 598.035C567.075 593.315 573.281 584.5 568.397 579.857C565.219 576.837 557.179 576.317 553 576.025C539.876 575.107 528.901 577.263 516 579z"/>
<path style="fill:#00c2fc; stroke:none;" d="M547.667 575.333L548.333 575.667L547.667 575.333z"/>
<path style="fill:#00c2fc; stroke:none;" d="M549 575L549 576L553 576L549 575z"/>
<path style="fill:#f47f76; stroke:none;" d="M553 575L554 576L553 575M1292 575L1293 576L1292 575z"/>
<path style="fill:#f8f6fd; stroke:none;" d="M1293.06 575.573C1288.91 576.875 1287.7 582.455 1292.15 584.397C1296.93 586.483 1304.86 585 1310 585L1352 585C1357.13 585 1367.29 586.93 1371.68 583.972C1380.06 578.334 1365.54 575.006 1362 575L1315 575C1308.27 575 1299.53 573.54 1293.06 575.573z"/>
<path style="fill:#00c2fc; stroke:none;" d="M526.667 576.333L527.333 576.667L526.667 576.333M557 576L557 577L560 577L557 576z"/>
<path style="fill:#00c2fc; stroke:none;" d="M1288 576L1289 577L1288 576z"/>
<path style="fill:#00c2fc; stroke:none;" d="M521 577L521 578L524 578L521 577z"/>
<path style="fill:#00c2fc; stroke:none;" d="M561 577L562 578L561 577z"/>
<path style="fill:#00c2fc; stroke:none;" d="M562.667 577.333L563.333 577.667L562.667 577.333M518 578L519 579L518 578z"/>
<path style="fill:#00c2fc; stroke:none;" d="M519 578L520 579L519 578z"/>
<path style="fill:#00c2fc; stroke:none;" d="M566.667 578.333L567.333 578.667L566.667 578.333M910.667 578.333L911.333 578.667L910.667 578.333z"/>
<path style="fill:#00c2fc; stroke:none;" d="M847 610C874.032 637.946 866.158 677.331 860.589 712C858.422 725.494 857.137 739.977 853 753L910 750.015L1064 753C1063.45 740.322 1058.87 727.49 1056.61 715C1052.5 692.18 1050.45 668.015 1053.73 645C1055.13 635.191 1058.51 612.459 1071 611L1071 610C1049.79 597.231 1025.31 583.625 1001 578L1005 589C998.498 592.221 992.862 596.577 986 599.186C968.862 605.703 948.534 605.774 931 600.845C925.571 599.319 915.757 596.435 913.198 590.816C911.612 587.331 913.839 581.745 914 578C890.579 583.419 866.892 596.837 847 610z"/>
<path style="fill:#00c2fc; stroke:none;" d="M1003.67 578.333L1004.33 578.667L1003.67 578.333z"/>
<path style="fill:#00c2fc; stroke:none;" d="M1375 578L1376 579L1375 578z"/>
<path style="fill:#00c2fc; stroke:none;" d="M515 579L516 580L515 579M569 579L570 580L569 579M907.667 579.333L908.333 579.667L907.667 579.333M1006.67 579.333L1007.33 579.667L1006.67 579.333z"/>
<path style="fill:#00c2fc; stroke:none;" d="M515.333 580.667L515.667 581.333L515.333 580.667z"/>
<path style="fill:#00c2fc; stroke:none;" d="M904.667 580.333L905.333 580.667L904.667 580.333M1001 580L1002 581L1001 580M1009 580L1010 581L1009 580z"/>
<path style="fill:#f47f76; stroke:none;" d="M1010 580L1011 581L1010 580z"/>
<path style="fill:#00c2fc; stroke:none;" d="M902 581L903 582L902 581M1012 581L1013 582L1012 581M515.333 582.667L515.667 583.333L515.333 582.667M899.667 582.333L900.333 582.667L899.667 582.333M1014.67 582.333L1015.33 582.667L1014.67 582.333M897 583L898 584L897 583M913.333 583.667L913.667 584.333L913.333 583.667M1002 583L1003 584L1002 583M1017 583L1018 584L1017 583z"/>
<path style="fill:#00c2fc; stroke:none;" d="M515 584L515 592L516 592L515 584z"/>
<path style="fill:#00c2fc; stroke:none;" d="M894.667 584.333L895.333 584.667L894.667 584.333M1019 584L1020 585L1019 584z"/>
<path style="fill:#f47f76; stroke:none;" d="M1020 584L1021 585L1020 584z"/>
<path style="fill:#00c2fc; stroke:none;" d="M1288 584L1289 585L1288 584z"/>
<path style="fill:#00c2fc; stroke:none;" d="M892 585L893 586L892 585M1003 585L1004 586L1003 585M1022 585L1023 586L1022 585z"/>
<path style="fill:#00c2fc; stroke:none;" d="M1373 585L1374 586L1373 585z"/>
<path style="fill:#00c2fc; stroke:none;" d="M890 586L891 587L890 586M1024 586L1025 587L1024 586z"/>
<path style="fill:#f47f76; stroke:none;" d="M1025 586L1026 587L1025 586z"/>
<path style="fill:#00c2fc; stroke:none;" d="M1290.67 586.333L1291.33 586.667L1290.67 586.333z"/>
<path style="fill:#00c2fc; stroke:none;" d="M887.667 587.333L888.333 587.667L887.667 587.333M1004.33 587.667L1004.67 588.333L1004.33 587.667M1026.67 587.333L1027.33 587.667L1026.67 587.333M885.667 588.333L886.333 588.667L885.667 588.333M912.333 588.667L912.667 589.333L912.333 588.667M1029 588L1030 589L1029 588M883 589L884 590L883 589M1003 589L1004 590L1003 589M1031 589L1032 590L1031 589M881 590L882 591L881 590M1033 590L1034 591L1033 590z"/>
<path style="fill:#f47f76; stroke:none;" d="M1034 590L1035 591L1034 590z"/>
<path style="fill:#00c2fc; stroke:none;" d="M879 591L880 592L879 591M912 591L913 592L912 591M1035.67 591.333L1036.33 591.667L1035.67 591.333M515 592L516 593L515 592M877 592L878 593L877 592M913 592L914 593L913 592M999 592L1000 593L999 592M1037.67 592.333L1038.33 592.667L1037.67 592.333z"/>
<path style="fill:#00c2fc; stroke:none;" d="M515 593L516 594L515 593z"/>
<path style="fill:#00c2fc; stroke:none;" d="M875 593L876 594L875 593M997 593L998 594L997 593M1040 593L1041 594L1040 593z"/>
<path style="fill:#00c2fc; stroke:none;" d="M1419 593L1420 594L1419 593z"/>
<path style="fill:#00c2fc; stroke:none;" d="M515.333 594.667L515.667 595.333L515.333 594.667M873.667 594.333L874.333 594.667L873.667 594.333M916 594L917 595L916 594M1042 594L1043 595L1042 594M871 595L872 596L871 595M994 595L995 596L994 595M1044 595L1045 596L1044 595M486.667 596.333L487.333 596.667L486.667 596.333M570 596L571 597L570 596M597.667 596.333L598.333 596.667L597.667 596.333z"/>
<path style="fill:#f47f76; stroke:none;" d="M869 596L870 597L869 596z"/>
<path style="fill:#00c2fc; stroke:none;" d="M870 596L871 597L870 596M919 596L920 597L919 596M992 596L993 597L992 596M1046 596L1047 597L1046 596M489 597L490 598L489 597M513 597L514 598L513 597M571.667 597.333L572.333 597.667L571.667 597.333M595 597L596 598L595 597M600 597L601 598L600 597M868 597L869 598L868 597M921 597L922 598L921 597M990 597L991 598L990 597M1048 597L1049 598L1048 597z"/>
<path style="fill:#00c2fc; stroke:none;" d="M1408 597L1409 598L1408 597M1415 597L1416 598L1415 597M1423 597L1424 598L1423 597M490 598L491 599L490 598z"/>
<path style="fill:#00c2fc; stroke:none;" d="M491 598L492 599L491 598M511 598L512 599L511 598M573.667 598.333L574.333 598.667L573.667 598.333M594 598L595 599L594 598M601 598L602 599L601 598M866 598L867 599L866 598M987 598L988 599L987 598M1050 598L1051 599L1050 598z"/>
<path style="fill:#00c2fc; stroke:none;" d="M1418 598L1419 599L1418 598z"/>
<path style="fill:#00c2fc; stroke:none;" d="M492 599L493 600L492 599M509 599L510 600L509 599M575 599L576 600L575 599M592 599L593 600L592 599M602 599L603 600L602 599M864 599L865 600L864 599M926 599L927 600L926 599M985 599L986 600L985 599M1052 599L1053 600L1052 599z"/>
<path style="fill:#00c2fc; stroke:none;" d="M1251.33 599.667L1251.67 600.333L1251.33 599.667z"/>
<path style="fill:#f8f6fd; stroke:none;" d="M1254.32 600.028C1250.91 602.318 1252.58 606.725 1256.06 607.682C1263.42 609.704 1273.38 608 1281 608L1379 608L1407 608C1410 608 1414.95 608.854 1417.24 606.397C1420.61 602.785 1416.55 599.379 1412.98 599.059C1403.81 598.234 1394.22 599 1385 599L1290 599C1281.53 599 1261.4 595.266 1254.32 600.028z"/>
<path style="fill:#00c2fc; stroke:none;" d="M494 600L495 601L494 600M507 600L508 601L507 600M577 600L578 601L577 600M590 600L591 601L590 600M603 600L604 601L603 600M862 600L863 601L862 600M929 600L930 601L929 600M981.667 600.333L982.333 600.667L981.667 600.333M1054 600L1055 601L1054 600z"/>
<path style="fill:#00c2fc; stroke:none;" d="M1248 600L1249 601L1248 600M1420 600L1421 601L1420 600z"/>
<path style="fill:#00c2fc; stroke:none;" d="M496 601L497 602L496 601M506 601L507 602L506 601M579 601L580 602L579 601M588 601L589 602L588 601z"/>
<path style="fill:#00c2fc; stroke:none;" d="M589 601L590 602L589 601z"/>
<path style="fill:#00c2fc; stroke:none;" d="M604 601L605 602L604 601z"/>
<path style="fill:#f47f76; stroke:none;" d="M860 601L861 602L860 601z"/>
<path style="fill:#00c2fc; stroke:none;" d="M861 601L862 602L861 601M933 601L934 602L933 601M978 601L979 602L978 601M1056 601L1057 602L1056 601z"/>
<path style="fill:#00c2fc; stroke:none;" d="M480 602L481 603L480 602M497 602L498 603L497 602z"/>
<path style="fill:#f47f76; stroke:none;" d="M498 602L499 603L498 602z"/>
<path style="fill:#00c2fc; stroke:none;" d="M504 602L505 603L504 602M580 602L581 603L580 602M587 602L588 603L587 602z"/>
<path style="fill:#f47f76; stroke:none;" d="M605 602L606 603L605 602z"/>
<path style="fill:#00c2fc; stroke:none;" d="M859 602L860 603L859 602M937.667 602.333L938.333 602.667L937.667 602.333M973.667 602.333L974.333 602.667L973.667 602.333M1057.67 602.333L1058.33 602.667L1057.67 602.333z"/>
<path style="fill:#00c2fc; stroke:none;" d="M479 603L480 604L479 603z"/>
<path style="fill:#00c2fc; stroke:none;" d="M499 603L500 604L499 603z"/>
<path style="fill:#00c2fc; stroke:none;" d="M503 603L504 604L503 603z"/>
<path style="fill:#00c2fc; stroke:none;" d="M582 603L583 604L582 603M585 603L586 604L585 603M857 603L858 604L857 603M943.667 603.333L944.333 603.667L943.667 603.333M966 603L966 604L969 604L966 603M1059 603L1060 604L1059 603z"/>
<path style="fill:#f47f76; stroke:none;" d="M1060 603L1061 604L1060 603z"/>
<path style="fill:#00c2fc; stroke:none;" d="M1248 603L1249 604L1248 603z"/>
<path style="fill:#00c2fc; stroke:none;" d="M478 604L479 605L478 604M501 604L502 605L501 604z"/>
<path style="fill:#00c2fc; stroke:none;" d="M583 604L584 605L583 604M606 604L607 605L606 604z"/>
<path style="fill:#00c2fc; stroke:none;" d="M855 604L856 605L855 604M1061 604L1062 605L1061 604z"/>
<path style="fill:#f47f76; stroke:none;" d="M1062 604L1063 605L1062 604z"/>
<path style="fill:#00c2fc; stroke:none;" d="M477 605L478 606L477 605M607 605L608 606L607 605M854 605L855 606L854 605M1063 605L1064 606L1063 605z"/>
<path style="fill:#00c2fc; stroke:none;" d="M1250 605L1251 606L1250 605M1419 605L1420 606L1419 605z"/>
<path style="fill:#00c2fc; stroke:none;" d="M476 606L477 607L476 606M608 606L609 607L608 606M852 606L853 607L852 606M1065 606L1066 607L1065 606z"/>
<path style="fill:#f47f76; stroke:none;" d="M475 607L476 608L475 607z"/>
<path style="fill:#00c2fc; stroke:none;" d="M609 607L610 608L609 607M850 607L851 608L850 607M1067 607L1068 608L1067 607z"/>
<path style="fill:#00c2fc; stroke:none;" d="M1249 607L1250 608L1249 607M1418 607L1419 608L1418 607z"/>
<path style="fill:#00c2fc; stroke:none;" d="M610 608L611 609L610 608M849 608L850 609L849 608M1068 608L1068 609L1071 610L1071 611C1058 611.555 1054.99 635.137 1053.58 645C1050.25 668.248 1052.46 692.965 1056.61 716C1058.87 728.49 1063.45 741.322 1064 754L1104 758L1095 888C1110.82 881.897 1134.03 876.309 1143.53 860.999C1156.04 840.837 1153.57 813.467 1151.17 791C1147.03 752.32 1138.3 713.901 1126 677C1115.92 646.757 1100.9 618.412 1068 608M474 609L475 610L474 609M847 609L848 610L847 609z"/>
<path style="fill:#00c2fc; stroke:none;" d="M1415 609L1416 610L1415 609z"/>
<path style="fill:#00c2fc; stroke:none;" d="M473 610L474 611L473 610M611 610L612 611L611 610M780 845C779.149 850.834 782.568 856.999 785.429 862C792.771 874.834 805.528 891.24 821 894L821 899L822 899L812 758L857 754L857 753L853 753C859.94 736.661 859.732 715.447 863.2 698C867.642 675.652 868.436 651.837 860.921 630C858.864 624.023 853.916 610.83 845.999 610.929C839.483 611.011 830.726 619.507 826 623.435C821.738 626.977 817.638 630.609 814.236 635.004C784.033 674.023 770 735.398 770 784C770 799.193 770.224 814.032 773.2 829C774.292 834.492 774.823 841.986 780 845z"/>
<path style="fill:#00c2fc; stroke:none;" d="M1255 610L1256 611L1255 610z"/>
<path style="fill:#00c2fc; stroke:none;" d="M612 611L613 612L612 611z"/>
<path style="fill:#00c2fc; stroke:none;" d="M1069 612L1070 613L1069 612M1248 612L1249 613L1248 612z"/>
<path style="fill:#00c2fc; stroke:none;" d="M471 613L472 614L471 613M613 613L614 614L613 613M614 614L615 615L614 614z"/>
<path style="fill:#00c2fc; stroke:none;" d="M843 614L845 616L843 614M849 614L850 615L849 614z"/>
<path style="fill:#00c2fc; stroke:none;" d="M470 615L471 616L470 615z"/>
<path style="fill:#00c2fc; stroke:none;" d="M839 615L837 616L837 617L839 615M1066 615L1067 616L1066 615M1253 615L1254 616L1253 615z"/>
<path style="fill:#00c2fc; stroke:none;" d="M469 616L470 617L469 616M615 616L616 617L615 616z"/>
<path style="fill:#00c2fc; stroke:none;" d="M1081 616L1082 617L1081 616z"/>
<path style="fill:#f47f76; stroke:none;" d="M616 617L617 618L616 617z"/>
<path style="fill:#00c2fc; stroke:none;" d="M468 618L469 619L468 618M616 618L617 619L616 618z"/>
<path style="fill:#00c2fc; stroke:none;" d="M1084 618L1086 620L1084 618M1229.67 618.333L1230.33 618.667L1229.67 618.333M1298 618L1299 619L1298 618z"/>
<path style="fill:#00c2fc; stroke:none;" d="M535 619L535 620L539 620L535 619z"/>
<path style="fill:#f8f6fd; stroke:none;" d="M539 619.429C532.261 620.364 525.715 622.307 520 626.105C483.247 650.531 508.204 705.859 550 699.699C599.649 692.382 588.328 612.585 539 619.429z"/>
<path style="fill:#f47f76; stroke:none;" d="M546 619L547 620L546 619z"/>
<path style="fill:#00c2fc; stroke:none;" d="M547 619L547 620L550 620L547 619M617 619L618 620L617 619z"/>
<path style="fill:#00c2fc; stroke:none;" d="M834 619L836 621L834 619z"/>
<path style="fill:#00c2fc; stroke:none;" d="M467 620L468 621L467 620M531.667 620.333L532.333 620.667L531.667 620.333M552.667 620.333L553.333 620.667L552.667 620.333z"/>
<path style="fill:#00c2fc; stroke:none;" d="M617 620L618 621L617 620M832 620L833 621L832 620M1083 620L1084 621L1083 620M1087 620L1087 623L1088 623L1087 620M1228.67 620.333L1229.33 620.667L1228.67 620.333M1296 620L1297 621L1296 620M1300 620L1301 621L1300 620z"/>
<path style="fill:#00c2fc; stroke:none;" d="M528.667 621.333L529.333 621.667L528.667 621.333M556 621L557 622L556 621M618 621L619 622L618 621z"/>
<path style="fill:#00c2fc; stroke:none;" d="M830 621L828 624L830 621M1085 621L1086 622L1085 621M1225 621L1224 624L1225 621z"/>
<path style="fill:#00c2fc; stroke:none;" d="M466 622L467 623L466 622M526 622L527 623L526 622M558.667 622.333L559.333 622.667L558.667 622.333z"/>
<path style="fill:#00c2fc; stroke:none;" d="M833 622L834 623L833 622M836 622L837 623L836 622z"/>
<path style="fill:#f8f6fd; stroke:none;" d="M1228.15 623.028C1223.32 625.937 1226.72 630.964 1231.02 631.772C1247.19 634.816 1266.52 632 1283 632C1288 632 1297.51 633.791 1301.56 630.258C1305.99 626.394 1301.11 622.419 1297 622.059C1280.93 620.65 1264.14 622 1248 622C1242.59 622 1232.92 620.159 1228.15 623.028z"/>
<path style="fill:#00c2fc; stroke:none;" d="M1303 622L1304 623L1303 622z"/>
<path style="fill:#00c2fc; stroke:none;" d="M524 623L525 624L524 623M560 623L561 624L560 623z"/>
<path style="fill:#00c2fc; stroke:none;" d="M561 623L562 624L561 623z"/>
<path style="fill:#00c2fc; stroke:none;" d="M619 623L620 624L619 623z"/>
<path style="fill:#f47f76; stroke:none;" d="M1226 623L1227 624L1226 623z"/>
<path style="fill:#00c2fc; stroke:none;" d="M465 624L466 625L465 624M522 624L523 625L522 624M562 624L563 625L562 624z"/>
<path style="fill:#00c2fc; stroke:none;" d="M619 624L620 625L619 624M1088 624L1089 625L1088 624z"/>
<path style="fill:#00c2fc; stroke:none;" d="M520 625L521 626L520 625M564 625L565 626L564 625M620.333 625.667L620.667 626.333L620.333 625.667z"/>
<path style="fill:#00c2fc; stroke:none;" d="M826 625L825 627L826 625M1093 625L1094 626L1093 625z"/>
<path style="fill:#00c2fc; stroke:none;" d="M464 626L465 627L464 626M519 626L520 627L519 626M565 626L566 627L565 626M517 627L518 628L517 627M567 627L568 628L567 627z"/>
<path style="fill:#00c2fc; stroke:none;" d="M1096 627L1095 629L1096 627z"/>
<path style="fill:#f47f76; stroke:none;" d="M463 628L464 629L463 628z"/>
<path style="fill:#00c2fc; stroke:none;" d="M516 628L517 629L516 628M568 628L569 629L568 628M621 628L622 629L621 628M463 629L464 630L463 629M515 629L516 630L515 629M569 629L570 630L569 629M514 630L515 631L514 630M622.333 630.667L622.667 631.333L622.333 630.667z"/>
<path style="fill:#00c2fc; stroke:none;" d="M822 630L823 631L822 630M827 630L828 631L827 630M1093 630L1094 631L1093 630z"/>
<path style="fill:#00c2fc; stroke:none;" d="M1302 630L1303 631L1302 630z"/>
<path style="fill:#00c2fc; stroke:none;" d="M1303 630L1304 631L1303 630z"/>
<path style="fill:#00c2fc; stroke:none;" d="M462 631L463 632L462 631M513 631L514 632L513 631M571 631L572 632L571 631z"/>
<path style="fill:#00c2fc; stroke:none;" d="M1226 631L1227 632L1226 631M1302 631L1303 632L1302 631M462 632L463 633L462 632z"/>
<path style="fill:#00c2fc; stroke:none;" d="M512 632L513 633L512 632M572 632L573 633L572 632M511 633L512 634L511 633M573 633L574 634L573 633M623.333 633.667L623.667 634.333L623.333 633.667M461.333 634.667L461.667 635.333L461.333 634.667M510 634L511 635L510 634M574 634L575 635L574 634z"/>
<path style="fill:#00c2fc; stroke:none;" d="M817 634L818 635L817 634M1104 634L1105 635L1104 634z"/>
<path style="fill:#00c2fc; stroke:none;" d="M575 635L576 636L575 635z"/>
<path style="fill:#f47f76; stroke:none;" d="M509 636L510 637L509 636z"/>
<path style="fill:#00c2fc; stroke:none;" d="M624.333 636.667L624.667 637.333L624.333 636.667z"/>
<path style="fill:#00c2fc; stroke:none;" d="M822 636L823 637L822 636M1105 637L1105 638L1108 638L1105 637z"/>
<path style="fill:#00c2fc; stroke:none;" d="M460.333 637.667L460.667 638.333L460.333 637.667M508 637L509 638L508 637M576 637L577 638L576 637z"/>
<path style="fill:#00c2fc; stroke:none;" d="M507 638L508 639L507 638z"/>
<path style="fill:#00c2fc; stroke:none;" d="M577 638L578 639L577 638z"/>
<path style="fill:#00c2fc; stroke:none;" d="M624 638L625 639L624 638M815 638L816 639L815 638M460 639L461 640L460 639z"/>
<path style="fill:#00c2fc; stroke:none;" d="M507 639L508 640L507 639z"/>
<path style="fill:#00c2fc; stroke:none;" d="M818 639L819 640L818 639M1108 639L1109 640L1108 639z"/>
<path style="fill:#00c2fc; stroke:none;" d="M506 640L507 641L506 640M578 640L579 641L578 640M625 640L625 644L626 644L625 640z"/>
<path style="fill:#f47f76; stroke:none;" d="M810 640L811 641L810 640z"/>
<path style="fill:#00c2fc; stroke:none;" d="M1372 640L1373 641L1372 640z"/>
<path style="fill:#00c2fc; stroke:none;" d="M459 641L459 644L460 644L459 641z"/>
<path style="fill:#00c2fc; stroke:none;" d="M1249 641L1249 643L1251 641L1249 641z"/>
<path style="fill:#00c2fc; stroke:none;" d="M505 642L506 643L505 642M579 642L580 643L579 642z"/>
<path style="fill:#00c2fc; stroke:none;" d="M810 642L811 643L810 642M1109 642L1111 644L1109 642M1251 643L1251 644L1256 644L1251 643M1374 642L1375 643L1374 642z"/>
<path style="fill:#f47f76; stroke:none;" d="M505 643L506 644L505 643z"/>
<path style="fill:#00c2fc; stroke:none;" d="M461 644L462 645L461 644z"/>
<path style="fill:#00c2fc; stroke:none;" d="M504 644L505 645L504 644z"/>
<path style="fill:#00c2fc; stroke:none;" d="M580.333 644.667L580.667 645.333L580.333 644.667z"/>
<path style="fill:#00c2fc; stroke:none;" d="M623 644L624 645L623 644z"/>
<path style="fill:#00c2fc; stroke:none;" d="M624 644L625 645L624 644z"/>
<path style="fill:#00c2fc; stroke:none;" d="M809 644L807 648L808 648L809 644M1372 644L1373 645L1372 644z"/>
<path style="fill:#00c2fc; stroke:none;" d="M462 645L463 646L462 645M504 645L505 646L504 645M622 645L623 646L622 645z"/>
<path style="fill:#00c2fc; stroke:none;" d="M1252 645L1253 646L1252 645z"/>
<path style="fill:#f8f6fd; stroke:none;" d="M1255.23 645.742C1249.79 648.288 1253.54 654.144 1258 654.852C1285.2 659.162 1316.43 655 1344 655C1350.34 655 1367.56 658.003 1372.26 653.258C1374.98 650.503 1373.43 646.277 1369.94 645.318C1364.01 643.687 1356.14 645 1350 645L1283 645C1275.34 645 1262.22 642.468 1255.23 645.742z"/>
<path style="fill:#00c2fc; stroke:none;" d="M1374.33 645.667L1374.67 646.333L1374.33 645.667z"/>
<path style="fill:#00c2fc; stroke:none;" d="M464 646L465 647L464 646M620 646L621 647L620 646z"/>
<path style="fill:#00c2fc; stroke:none;" d="M810 646L811 647L810 646z"/>
<path style="fill:#00c2fc; stroke:none;" d="M466 647L467 648L466 647M503.333 647.667L503.667 648.333L503.333 647.667M581.333 647.667L581.667 648.333L581.333 647.667M618 647L619 648L618 647z"/>
<path style="fill:#00c2fc; stroke:none;" d="M1375.33 647.667L1375.67 648.333L1375.33 647.667M468 648L469 649L468 648z"/>
<path style="fill:#00c2fc; stroke:none;" d="M617 648L618 649L617 648z"/>
<path style="fill:#00c2fc; stroke:none;" d="M1202 648L1203 649L1202 648z"/>
<path style="fill:#00c2fc; stroke:none;" d="M469 649L470 650L469 649M615 649L616 650L615 649M471 650L472 651L471 650M582 650L582 653L583 653L582 650M613 650L614 651L613 650z"/>
<path style="fill:#00c2fc; stroke:none;" d="M1202 650L1202 653L1203 653L1202 650z"/>
<path style="fill:#00c2fc; stroke:none;" d="M473 651L474 652L473 651M502 651L502 654L503 654L502 651z"/>
<path style="fill:#00c2fc; stroke:none;" d="M611 651L612 652L611 651z"/>
<path style="fill:#f47f76; stroke:none;" d="M612 651L613 652L612 651z"/>
<path style="fill:#00c2fc; stroke:none;" d="M1250 651L1251 652L1250 651M1248 652L1249 653L1248 652z"/>
<path style="fill:#00c2fc; stroke:none;" d="M611 653L611 668L612 668L611 653z"/>
<path style="fill:#00c2fc; stroke:none;" d="M806.333 653.667L806.667 654.333L806.333 653.667M1114 653L1115 654L1114 653M1252 654L1253 655L1252 654M1373 654L1374 655L1373 654M803 655L804 656L803 655M1113 655L1114 656L1113 655M1116 655L1117 656L1116 655M1254 655L1255 656L1254 655M583 656L584 657L583 656M1449 656L1450 657L1449 656z"/>
<path style="fill:#00c2fc; stroke:none;" d="M583 657L583 663L584 663L583 657z"/>
<path style="fill:#f47f76; stroke:none;" d="M473 658L474 659L473 658z"/>
<path style="fill:#00c2fc; stroke:none;" d="M501 658L502 659L501 658z"/>
<path style="fill:#00c2fc; stroke:none;" d="M473.333 659.667L473.667 660.333L473.333 659.667M501.333 659.667L501.667 660.333L501.333 659.667z"/>
<path style="fill:#00c2fc; stroke:none;" d="M801 659L802 660L801 659M1118 659L1119 660L1118 659M1206 659L1207 660L1206 659z"/>
<path style="fill:#f47f76; stroke:none;" d="M473 661L474 662L473 661z"/>
<path style="fill:#00c2fc; stroke:none;" d="M501 661L502 662L501 661M1204 661L1205 662L1204 661M583 663L584 664L583 663M1118 663L1119 664L1118 663M1210 664L1211 665L1210 664M1441 664L1442 665L1441 664M1208 665L1209 666L1208 665M1443 665L1444 666L1443 665M1445 665L1446 666L1445 665z"/>
<path style="fill:#00c2fc; stroke:none;" d="M502 666L502 669L503 669L502 666z"/>
<path style="fill:#00c2fc; stroke:none;" d="M1441 666L1440 668L1441 666z"/>
<path style="fill:#00c2fc; stroke:none;" d="M582.333 667.667L582.667 668.333L582.333 667.667z"/>
<path style="fill:#00c2fc; stroke:none;" d="M1121 667L1122 668L1121 667M1212 667L1213 668L1212 667M1444 667L1445 668L1444 667z"/>
<path style="fill:#00c2fc; stroke:none;" d="M472 668L473 669L472 668z"/>
<path style="fill:#00c2fc; stroke:none;" d="M473 668L474 669L473 668z"/>
<path style="fill:#00c2fc; stroke:none;" d="M612 668L613 669L612 668z"/>
<path style="fill:#00c2fc; stroke:none;" d="M1210 668L1211 669L1210 668z"/>
<path style="fill:#00c2fc; stroke:none;" d="M471 669L472 670L471 669z"/>
<path style="fill:#00c2fc; stroke:none;" d="M582 669L583 670L582 669M613 669L614 670L613 669z"/>
<path style="fill:#00c2fc; stroke:none;" d="M614 669L615 670L614 669z"/>
<path style="fill:#00c2fc; stroke:none;" d="M1120 669L1121 670L1120 669M1439.67 669.333L1440.33 669.667L1439.67 669.333z"/>
<path style="fill:#00c2fc; stroke:none;" d="M469 670L470 671L469 670M615 670L616 671L615 670M467 671L468 672L467 671M503 671L504 672L503 671M581.333 671.667L581.667 672.333L581.333 671.667M617 671L618 672L617 671z"/>
<path style="fill:#00c2fc; stroke:none;" d="M798 671L799 672L798 671z"/>
<path style="fill:#00c2fc; stroke:none;" d="M465 672L466 673L465 672z"/>
<path style="fill:#00c2fc; stroke:none;" d="M466 672L467 673L466 672M503 672L504 673L503 672z"/>
<path style="fill:#00c2fc; stroke:none;" d="M619 672L620 673L619 672z"/>
<path style="fill:#00c2fc; stroke:none;" d="M795 672L796 673L795 672z"/>
<path style="fill:#00c2fc; stroke:none;" d="M464 673L465 674L464 673z"/>
<path style="fill:#00c2fc; stroke:none;" d="M620 673L621 674L620 673z"/>
<path style="fill:#00c2fc; stroke:none;" d="M621 673L622 674L621 673M462 674L463 675L462 674M504 674L505 675L504 674M580.333 674.667L580.667 675.333L580.333 674.667M622 674L623 675L622 674M460 675L461 676L460 675M624 675L625 676L624 675M459.333 676.667L459.667 677.333L459.333 676.667M505 676L506 677L505 676z"/>
<path style="fill:#f47f76; stroke:none;" d="M579 676L580 677L579 676z"/>
<path style="fill:#00c2fc; stroke:none;" d="M625 676L625 680L626 680L625 676M579 677L580 678L579 677M506 678L507 679L506 678z"/>
<path style="fill:#00c2fc; stroke:none;" d="M506 679L507 680L506 679z"/>
<path style="fill:#00c2fc; stroke:none;" d="M578 679L579 680L578 679z"/>
<path style="fill:#00c2fc; stroke:none;" d="M794 679L795 680L794 679M797 679L798 680L797 679z"/>
<path style="fill:#00c2fc; stroke:none;" d="M460.333 680.667L460.667 681.333L460.333 680.667M507 680L508 681L507 680M577 680L578 681L577 680z"/>
<path style="fill:#00c2fc; stroke:none;" d="M577 681L578 682L577 681z"/>
<path style="fill:#00c2fc; stroke:none;" d="M624.333 681.667L624.667 682.333L624.333 681.667M508 682L509 683L508 682M576 682L577 683L576 682M509 683L510 684L509 683M575 683L576 684L575 683M461.333 684.667L461.667 685.333L461.333 684.667z"/>
<path style="fill:#00c2fc; stroke:none;" d="M623 684L624 685L623 684M510 685L511 686L510 685z"/>
<path style="fill:#00c2fc; stroke:none;" d="M574 685L575 686L574 685M623.333 685.667L623.667 686.333L623.333 685.667M511 686L512 687L511 686M573 686L574 687L573 686M462.333 687.667L462.667 688.333L462.333 687.667M512 687L513 688L512 687M572 687L573 688L572 687M513 688L514 689L513 688M571 688L572 689L571 688M622 688L623 689L622 688M514 689L515 690L514 689M570 689L571 690L570 689z"/>
<path style="fill:#f47f76; stroke:none;" d="M622 689L623 690L622 689z"/>
<path style="fill:#00c2fc; stroke:none;" d="M463 690L464 691L463 690M515 690L516 691L515 690M569 690L570 691L569 690z"/>
<path style="fill:#00c2fc; stroke:none;" d="M621 690L622 691L621 690z"/>
<path style="fill:#00c2fc; stroke:none;" d="M516 691L517 692L516 691M568 691L569 692L568 691M621 691L622 692L621 691z"/>
<path style="fill:#00c2fc; stroke:none;" d="M464 692L465 693L464 692M567 692L568 693L567 692z"/>
<path style="fill:#00c2fc; stroke:none;" d="M464 693L465 694L464 693M519 693L520 694L519 693M565 693L566 694L565 693M620 693L621 694L620 693M521 694L522 695L521 694z"/>
<path style="fill:#00c2fc; stroke:none;" d="M564 694L565 695L564 694z"/>
<path style="fill:#00c2fc; stroke:none;" d="M465 695L466 696L465 695M522 695L523 696L522 695M562 695L563 696L562 695M619.333 695.667L619.667 696.333L619.333 695.667z"/>
<path style="fill:#00c2fc; stroke:none;" d="M787 695L788 696L787 695z"/>
<path style="fill:#00c2fc; stroke:none;" d="M524 696L525 697L524 696M560 696L561 697L560 696M466 697L467 698L466 697M526 697L527 698L526 697z"/>
<path style="fill:#f47f76; stroke:none;" d="M527 697L528 698L527 697M557 697L558 698L557 697z"/>
<path style="fill:#00c2fc; stroke:none;" d="M558 697L559 698L558 697M618.333 697.667L618.667 698.333L618.333 697.667z"/>
<path style="fill:#00c2fc; stroke:none;" d="M528 698L529 699L528 698z"/>
<path style="fill:#00c2fc; stroke:none;" d="M529 698L530 699L529 698M555 698L556 699L555 698z"/>
<path style="fill:#00c2fc; stroke:none;" d="M556 698L557 699L556 698M788 698L789 699L788 698z"/>
<path style="fill:#00c2fc; stroke:none;" d="M467 699L468 700L467 699M532.667 699.333L533.333 699.667L532.667 699.333M551.667 699.333L552.333 699.667L551.667 699.333z"/>
<path style="fill:#00c2fc; stroke:none;" d="M553 699L554 700L553 699z"/>
<path style="fill:#00c2fc; stroke:none;" d="M617 699L618 700L617 699z"/>
<path style="fill:#00c2fc; stroke:none;" d="M785 699L786 700L785 699M536 700L537 701L536 700z"/>
<path style="fill:#00c2fc; stroke:none;" d="M537 700L537 701L549 701L537 700M468 701L469 702L468 701M616 701L617 702L616 701z"/>
<path style="fill:#00c2fc; stroke:none;" d="M787 701L788 702L787 701z"/>
<path style="fill:#00c2fc; stroke:none;" d="M469 702L470 703L469 702z"/>
<path style="fill:#f47f76; stroke:none;" d="M469 703L470 704L469 703z"/>
<path style="fill:#00c2fc; stroke:none;" d="M615 703L616 704L615 703z"/>
<path style="fill:#00c2fc; stroke:none;" d="M785 703L786 704L785 703z"/>
<path style="fill:#00c2fc; stroke:none;" d="M470 704L471 705L470 704z"/>
<path style="fill:#00c2fc; stroke:none;" d="M614 704L615 705L614 704z"/>
<path style="fill:#00c2fc; stroke:none;" d="M614 705L615 706L614 705M471 706L472 707L471 706M613 706L614 707L613 706M472 707L473 708L472 707z"/>
<path style="fill:#00c2fc; stroke:none;" d="M612 707L613 708L612 707z"/>
<path style="fill:#00c2fc; stroke:none;" d="M612 708L613 709L612 708M473 709L474 710L473 709M611 709L612 710L611 709z"/>
<path style="fill:#00c2fc; stroke:none;" d="M782 709L783 710L782 709z"/>
<path style="fill:#00c2fc; stroke:none;" d="M474 710L475 711L474 710M610 710L611 711L610 710z"/>
<path style="fill:#00c2fc; stroke:none;" d="M475 711L476 712L475 711z"/>
<path style="fill:#f47f76; stroke:none;" d="M609 712L610 713L609 712M476 713L477 714L476 713z"/>
<path style="fill:#00c2fc; stroke:none;" d="M608 713L609 714L608 713M477 714L478 715L477 714M607 714L608 715L607 714M478 715L479 716L478 715z"/>
<path style="fill:#00c2fc; stroke:none;" d="M500 715L501 716L500 715z"/>
<path style="fill:#00c2fc; stroke:none;" d="M501 715L502 716L501 715z"/>
<path style="fill:#00c2fc; stroke:none;" d="M502 715L503 716L502 715z"/>
<path style="fill:#00c2fc; stroke:none;" d="M583.667 715.333L584.333 715.667L583.667 715.333M606 715L607 716L606 715M479 716L480 717L479 716M499 716L500 717L499 716M503 716L504 717L503 716M581 716L582 717L581 716M585 716L586 717L585 716z"/>
<path style="fill:#00c2fc; stroke:none;" d="M605 716L606 717L605 716z"/>
<path style="fill:#00c2fc; stroke:none;" d="M480 717L481 718L480 717M497 717L498 718L497 717M504 717L505 718L504 717M580 717L581 718L580 717M587 717L588 718L587 717z"/>
<path style="fill:#00c2fc; stroke:none;" d="M604 717L605 718L604 717z"/>
<path style="fill:#00c2fc; stroke:none;" d="M481 718L482 719L481 718M495 718L496 719L495 718M506 718L507 719L506 718M578 718L579 719L578 718M589 718L590 719L589 718M482 719L483 720L482 719M494 719L495 720L494 719M508 719L509 720L508 719M577 719L578 720L577 719M590 719L591 720L590 719z"/>
<path style="fill:#00c2fc; stroke:none;" d="M591 719L592 720L591 719z"/>
<path style="fill:#00c2fc; stroke:none;" d="M483 720L484 721L483 720M492 720L493 721L492 720M509 720L510 721L509 720z"/>
<path style="fill:#00c2fc; stroke:none;" d="M510 720L511 721L510 720z"/>
<path style="fill:#00c2fc; stroke:none;" d="M575 720L576 721L575 720M592 720L593 721L592 720M484 721L485 722L484 721M490 721L491 722L490 721M511 721L512 722L511 721M573 721L574 722L573 721M594 721L595 722L594 721M485 722L486 723L485 722M488 722L489 723L488 722z"/>
<path style="fill:#f47f76; stroke:none;" d="M489 722L490 723L489 722z"/>
<path style="fill:#00c2fc; stroke:none;" d="M513.667 722.333L514.333 722.667L513.667 722.333M571 722L572 723L571 722M596 722L597 723L596 722z"/>
<path style="fill:#00c2fc; stroke:none;" d="M599 722L600 723L599 722z"/>
<path style="fill:#00c2fc; stroke:none;" d="M486.667 723.333L487.333 723.667L486.667 723.333M597.667 723.333L598.333 723.667L597.667 723.333M515 724L515 728L516 728L515 724z"/>
<path style="fill:#00c2fc; stroke:none;" d="M1137 727L1138 728L1137 727M515 728L515 736L516 736L515 728M777 731L778 732L777 731z"/>
<path style="fill:#00c2fc; stroke:none;" d="M515 736L516 741L517 741L515 736z"/>
<path style="fill:#00c2fc; stroke:none;" d="M1141.33 739.667L1141.67 740.333L1141.33 739.667z"/>
<path style="fill:#f47f76; stroke:none;" d="M515 740L516 741L515 740z"/>
<path style="fill:#00c2fc; stroke:none;" d="M568.667 740.333L569.333 740.667L568.667 740.333z"/>
<path style="fill:#f47f76; stroke:none;" d="M518 741L519 742L518 741z"/>
<path style="fill:#00c2fc; stroke:none;" d="M519 741L520 742L519 741z"/>
<path style="fill:#00c2fc; stroke:none;" d="M520 741L521 742L520 741z"/>
<path style="fill:#00c2fc; stroke:none;" d="M565.667 741.333L566.333 741.667L565.667 741.333M522 742L522 743L525 743L522 742z"/>
<path style="fill:#00c2fc; stroke:none;" d="M560 742L561 743L560 742z"/>
<path style="fill:#00c2fc; stroke:none;" d="M561.667 742.333L562.333 742.667L561.667 742.333M527 743L527 744L530 744L527 743z"/>
<path style="fill:#00c2fc; stroke:none;" d="M530 743L531 744L530 743z"/>
<path style="fill:#00c2fc; stroke:none;" d="M555 743L555 744L559 744L555 743M534 744L534 745L543 745L534 744z"/>
<path style="fill:#00c2fc; stroke:none;" d="M543 744L544 745L543 744z"/>
<path style="fill:#00c2fc; stroke:none;" d="M544 744L544 745L552 745L544 744M904 750L904 751L926 751L904 750z"/>
<path style="fill:#f47f76; stroke:none;" d="M926 750L926 751L929 751L926 750z"/>
<path style="fill:#f8f6fd; stroke:none;" d="M824 927L1092 927L1104 758C1064.55 754.886 1025.61 750.985 986 750.015C952.597 749.196 919.3 751.998 886 752C867.791 752.001 849.082 753.681 831 755.845C826.874 756.339 815.639 755.757 813.117 759.589C811.421 762.166 812.905 768.959 813.039 772C813.552 783.608 814.352 795.456 815.714 807C820.312 845.965 823.675 887.77 824 927z"/>
<path style="fill:#f47f76; stroke:none;" d="M931 750L931 751L934 751L931 750M991 750L991 751L998 751L991 750z"/>
<path style="fill:#00c2fc; stroke:none;" d="M998 750L998 751L1020 751L998 750M880 751L880 752L893 752L880 751z"/>
<path style="fill:#f47f76; stroke:none;" d="M893 751L893 752L897 752L893 751M1026 751L1026 752L1030 752L1026 751z"/>
<path style="fill:#00c2fc; stroke:none;" d="M1030 751L1030 752L1042 752L1030 751z"/>
<path style="fill:#00c2fc; stroke:none;" d="M811 752L812 753L811 752z"/>
<path style="fill:#00c2fc; stroke:none;" d="M863 752L863 753L872 753L863 752z"/>
<path style="fill:#f47f76; stroke:none;" d="M872 752L872 753L875 753L872 752M1048.67 752.333L1049.33 752.667L1048.67 752.333z"/>
<path style="fill:#00c2fc; stroke:none;" d="M1050 752L1050 753L1059 753L1050 752z"/>
<path style="fill:#00c2fc; stroke:none;" d="M836 753L837 754L836 753z"/>
<path style="fill:#f47f76; stroke:none;" d="M857.667 753.333L858.333 753.667L857.667 753.333M1061 753L1061 754L1064 754L1061 753z"/>
<path style="fill:#00c2fc; stroke:none;" d="M828 754L829 755L828 754z"/>
<path style="fill:#f47f76; stroke:none;" d="M844 754L845 755L844 754M1084 755L1085 756L1084 755z"/>
<path style="fill:#00c2fc; stroke:none;" d="M812.667 756.333L813.333 756.667L812.667 756.333z"/>
<path style="fill:#f47f76; stroke:none;" d="M825 756L826 757L825 756M1092 756L1093 757L1092 756z"/>
<path style="fill:#00c2fc; stroke:none;" d="M1103 756L1104 757L1103 756z"/>
<path style="fill:#f47f76; stroke:none;" d="M817 757L818 758L817 757M812 758L813 759L812 758M812 762L813 763L812 762z"/>
<path style="fill:#00c2fc; stroke:none;" d="M773 767L775 769L773 767M771 775L772 776L771 775M1144 775L1145 776L1144 775M1146 775L1147 776L1146 775M773 776L774 777L773 776z"/>
<path style="fill:#f47f76; stroke:none;" d="M813.333 776.667L813.667 777.333L813.333 776.667M1102.33 776.667L1102.67 777.333L1102.33 776.667z"/>
<path style="fill:#00c2fc; stroke:none;" d="M1148 779L1149 780L1148 779M1149.33 787.667L1149.67 788.333L1149.33 787.667M1145 792L1146 793L1145 792z"/>
<path style="fill:#f47f76; stroke:none;" d="M815 805L816 806L815 805M1100 806L1101 807L1100 806z"/>
<path style="fill:#00c2fc; stroke:none;" d="M774 808L775 809L774 808M772 814L772 818L773 818L772 814z"/>
<path style="fill:#f47f76; stroke:none;" d="M816 820L817 821L816 820M1099 820L1100 821L1099 820M817 835L818 836L817 835M1098 835L1099 836L1098 835M1151 837L1152 838L1151 837z"/>
<path style="fill:#00c2fc; stroke:none;" d="M777.667 840.333L778.333 840.667L777.667 840.333M782 840L784 842L782 840M1145 841L1146 842L1145 841M1149 841L1150 842L1149 841M779 843L780 844L779 843M1147 843L1148 844L1147 843z"/>
<path style="fill:#00c2fc; stroke:none;" d="M774 844L775 845L774 844z"/>
<path style="fill:#373d5e; stroke:none;" d="M828 1041C825.794 1047.96 824.966 1054.72 825.001 1062C825.06 1074.41 828.687 1091.91 840.004 1099.01C848.03 1104.04 858.959 1103 868 1103C893.758 1103 919.112 1098.15 943 1088.4C947.022 1086.75 951.549 1083.49 956 1083.54C975.777 1083.75 995.842 1098.34 1016 1089.64C1024.01 1086.18 1029.2 1079.13 1031.91 1071C1033.54 1066.12 1032.87 1059.43 1038.06 1056.8C1053.11 1049.17 1071.2 1045.31 1087 1039.19C1120.33 1026.28 1153.27 1011.85 1185 995.424C1199.92 987.699 1217.13 980.681 1229.99 969.674C1250.12 952.44 1242.08 904.238 1226.67 886.015C1219.81 877.903 1209.22 872.295 1200 867.309C1184.31 858.826 1166.93 852.51 1150 847C1143.13 862.413 1136.47 870.251 1121 877.742C1114.76 880.764 1100.14 883.216 1096.03 888.702C1093.85 891.61 1094.34 899.393 1094.09 903C1093.22 915.682 1093 928.269 1093 941L823 941L821 895C800.243 888.429 782.875 864.571 778 844C747.644 848.483 705.686 874.086 692.402 902C687.81 911.648 688 923.569 688 934C688 943.786 688.314 955.304 693.363 964C700.108 975.616 715.844 984.265 727 991.192C749.245 1005.01 772.121 1017.54 796 1028.31C806.071 1032.85 817.065 1039.12 828 1041z"/>
<path style="fill:#00c2fc; stroke:none;" d="M771 845L772 846L771 845z"/>
<path style="fill:#00c2fc; stroke:none;" d="M778 845L778 847L780 845L778 845M1148 845L1149 846L1148 845z"/>
<path style="fill:#00c2fc; stroke:none;" d="M768 846L769 847L768 846M765 847L766 848L765 847z"/>
<path style="fill:#00c2fc; stroke:none;" d="M766 847L767 848L766 847M783 847L784 848L783 847M1149 847L1150 848L1149 847z"/>
<path style="fill:#00c2fc; stroke:none;" d="M1151 847L1152 848L1151 847z"/>
<path style="fill:#f47f76; stroke:none;" d="M1152 847L1153 848L1152 847z"/>
<path style="fill:#00c2fc; stroke:none;" d="M763 848L764 849L763 848z"/>
<path style="fill:#00c2fc; stroke:none;" d="M779.333 848.667L779.667 849.333L779.333 848.667M781 848L782 849L781 848M1147 848L1148 849L1147 848z"/>
<path style="fill:#00c2fc; stroke:none;" d="M1154 848L1155 849L1154 848z"/>
<path style="fill:#f47f76; stroke:none;" d="M1155 848L1156 849L1155 848z"/>
<path style="fill:#00c2fc; stroke:none;" d="M760 849L761 850L760 849z"/>
<path style="fill:#00c2fc; stroke:none;" d="M761 849L762 850L761 849z"/>
<path style="fill:#f47f76; stroke:none;" d="M1097 849L1098 850L1097 849z"/>
<path style="fill:#00c2fc; stroke:none;" d="M1148.33 849.667L1148.67 850.333L1148.33 849.667z"/>
<path style="fill:#00c2fc; stroke:none;" d="M1157 849L1158 850L1157 849M758 850L759 851L758 850z"/>
<path style="fill:#f47f76; stroke:none;" d="M818 850L819 851L818 850z"/>
<path style="fill:#00c2fc; stroke:none;" d="M1160 850L1161 851L1160 850M755.667 851.333L756.333 851.667L755.667 851.333z"/>
<path style="fill:#00c2fc; stroke:none;" d="M780 851L781 852L780 851M1162 851L1163 852L1162 851z"/>
<path style="fill:#00c2fc; stroke:none;" d="M1163 851L1164 852L1163 851M753 852L754 853L753 852z"/>
<path style="fill:#00c2fc; stroke:none;" d="M1147.33 852.667L1147.67 853.333L1147.33 852.667z"/>
<path style="fill:#00c2fc; stroke:none;" d="M1165.67 852.333L1166.33 852.667L1165.67 852.333M751 853L752 854L751 853z"/>
<path style="fill:#00c2fc; stroke:none;" d="M781.333 853.667L781.667 854.333L781.333 853.667z"/>
<path style="fill:#00c2fc; stroke:none;" d="M1168 853L1169 854L1168 853M749 854L750 855L749 854z"/>
<path style="fill:#00c2fc; stroke:none;" d="M1170 854L1171 855L1170 854z"/>
<path style="fill:#00c2fc; stroke:none;" d="M1171 854L1172 855L1171 854M747 855L748 856L747 855z"/>
<path style="fill:#00c2fc; stroke:none;" d="M1146 855L1147 856L1146 855z"/>
<path style="fill:#00c2fc; stroke:none;" d="M1173 855L1174 856L1173 855M745 856L746 857L745 856z"/>
<path style="fill:#00c2fc; stroke:none;" d="M782 856L783 857L782 856z"/>
<path style="fill:#00c2fc; stroke:none;" d="M1176 856L1177 857L1176 856M743 857L744 858L743 857z"/>
<path style="fill:#00c2fc; stroke:none;" d="M1145 857L1146 858L1145 857z"/>
<path style="fill:#00c2fc; stroke:none;" d="M1178 857L1179 858L1178 857M741 858L742 859L741 858z"/>
<path style="fill:#00c2fc; stroke:none;" d="M783 858L784 859L783 858M785 858L786 861L787 861L785 858M1180 858L1181 859L1180 858z"/>
<path style="fill:#00c2fc; stroke:none;" d="M1181 858L1182 859L1181 858M739 859L740 860L739 859z"/>
<path style="fill:#00c2fc; stroke:none;" d="M1144 859L1145 860L1144 859z"/>
<path style="fill:#00c2fc; stroke:none;" d="M1183 859L1184 860L1183 859M737 860L738 861L737 860z"/>
<path style="fill:#00c2fc; stroke:none;" d="M784 860L785 861L784 860z"/>
<path style="fill:#00c2fc; stroke:none;" d="M1185 860L1186 861L1185 860z"/>
<path style="fill:#00c2fc; stroke:none;" d="M788 861L789 862L788 861M1143 861L1144 862L1143 861z"/>
<path style="fill:#00c2fc; stroke:none;" d="M1187 861L1188 862L1187 861M734 862L735 863L734 862z"/>
<path style="fill:#00c2fc; stroke:none;" d="M785 862L786 863L785 862M1142.33 862.667L1142.67 863.333L1142.33 862.667M1189 862L1190 863L1189 862z"/>
<path style="fill:#00c2fc; stroke:none;" d="M1190 862L1191 863L1190 862M732 863L733 864L732 863z"/>
<path style="fill:#00c2fc; stroke:none;" d="M786.333 863.667L786.667 864.333L786.333 863.667z"/>
<path style="fill:#00c2fc; stroke:none;" d="M1192 863L1193 864L1192 863M730 864L731 865L730 864z"/>
<path style="fill:#f47f76; stroke:none;" d="M819.333 864.667L819.667 865.333L819.333 864.667z"/>
<path style="fill:#00c2fc; stroke:none;" d="M1138.67 864.333L1139.33 864.667L1138.67 864.333M1141 864L1142 865L1141 864z"/>
<path style="fill:#00c2fc; stroke:none;" d="M1194 864L1195 865L1194 864M729 865L730 866L729 865z"/>
<path style="fill:#00c2fc; stroke:none;" d="M787 865L788 866L787 865M1129 865L1128 867L1129 865M1140 865L1141 866L1140 865z"/>
<path style="fill:#00c2fc; stroke:none;" d="M1196 865L1197 866L1196 865M727 866L728 867L727 866z"/>
<path style="fill:#00c2fc; stroke:none;" d="M1132.67 866.333L1133.33 866.667L1132.67 866.333M1139 866L1140 867L1139 866z"/>
<path style="fill:#00c2fc; stroke:none;" d="M1198 866L1199 867L1198 866z"/>
<path style="fill:#00c2fc; stroke:none;" d="M726 867L727 868L726 867M788 867L789 868L788 867M1135 867L1136 868L1135 867M1138 867L1139 868L1138 867z"/>
<path style="fill:#00c2fc; stroke:none;" d="M1200 867L1201 868L1200 867M724 868L725 869L724 868z"/>
<path style="fill:#00c2fc; stroke:none;" d="M789 868L790 869L789 868M1136.67 868.333L1137.33 868.667L1136.67 868.333z"/>
<path style="fill:#00c2fc; stroke:none;" d="M1202 868L1203 869L1202 868z"/>
<path style="fill:#00c2fc; stroke:none;" d="M723 869L724 870L723 869M790.333 869.667L790.667 870.333L790.333 869.667M1131 869L1132 870L1131 869M1135 869L1136 870L1135 869z"/>
<path style="fill:#00c2fc; stroke:none;" d="M1203 869L1204 870L1203 869z"/>
<path style="fill:#f47f76; stroke:none;" d="M1204 869L1205 870L1204 869z"/>
<path style="fill:#00c2fc; stroke:none;" d="M721 870L722 871L721 870z"/>
<path style="fill:#00c2fc; stroke:none;" d="M1128 870L1130 872L1128 870M1134 870L1135 871L1134 870z"/>
<path style="fill:#00c2fc; stroke:none;" d="M1205 870L1206 871L1205 870M720 871L721 872L720 871z"/>
<path style="fill:#00c2fc; stroke:none;" d="M791 871L792 872L791 871M818 871L819 872L818 871M1132 871L1133 872L1132 871z"/>
<path style="fill:#00c2fc; stroke:none;" d="M1207 871L1208 872L1207 871M718 872L719 873L718 872z"/>
<path style="fill:#00c2fc; stroke:none;" d="M792 872L793 873L792 872M795 872L796 873L795 872M1130 872L1131 873L1130 872z"/>
<path style="fill:#00c2fc; stroke:none;" d="M1209 872L1210 873L1209 872M717 873L718 874L717 873z"/>
<path style="fill:#00c2fc; stroke:none;" d="M793.333 873.667L793.667 874.333L793.333 873.667M1122 873L1123 874L1122 873M1129 873L1130 874L1129 873z"/>
<path style="fill:#00c2fc; stroke:none;" d="M1210 873L1211 874L1210 873z"/>
<path style="fill:#00c2fc; stroke:none;" d="M716 874L717 875L716 874M1120 874L1121 875L1120 874M1127 874L1128 875L1127 874z"/>
<path style="fill:#00c2fc; stroke:none;" d="M1212 874L1213 875L1212 874z"/>
<path style="fill:#f47f76; stroke:none;" d="M714 875L715 876L714 875z"/>
<path style="fill:#00c2fc; stroke:none;" d="M794 875L795 876L794 875M1125 875L1126 876L1125 875M1213 875L1214 876L1213 875z"/>
<path style="fill:#00c2fc; stroke:none;" d="M713 876L714 877L713 876z"/>
<path style="fill:#00c2fc; stroke:none;" d="M795 876L796 877L795 876M1123 876L1124 877L1123 876z"/>
<path style="fill:#00c2fc; stroke:none;" d="M1215 876L1216 877L1215 876M712 877L713 878L712 877z"/>
<path style="fill:#00c2fc; stroke:none;" d="M796 877L797 878L796 877M1120.67 877.333L1121.33 877.667L1120.67 877.333z"/>
<path style="fill:#00c2fc; stroke:none;" d="M1216 877L1217 878L1216 877M711 878L712 879L711 878z"/>
<path style="fill:#00c2fc; stroke:none;" d="M797 878L798 879L797 878M1118.67 878.333L1119.33 878.667L1118.67 878.333z"/>
<path style="fill:#00c2fc; stroke:none;" d="M1218 878L1219 879L1218 878z"/>
<path style="fill:#00c2fc; stroke:none;" d="M798 879L799 880L798 879z"/>
<path style="fill:#f47f76; stroke:none;" d="M820 879L821 880L820 879z"/>
<path style="fill:#00c2fc; stroke:none;" d="M1116.67 879.333L1117.33 879.667L1116.67 879.333z"/>
<path style="fill:#00c2fc; stroke:none;" d="M1219 879L1220 880L1219 879z"/>
<path style="fill:#00c2fc; stroke:none;" d="M1114 880L1115 881L1114 880z"/>
<path style="fill:#00c2fc; stroke:none;" d="M1220 880L1221 881L1220 880z"/>
<path style="fill:#f47f76; stroke:none;" d="M707 881L708 882L707 881z"/>
<path style="fill:#00c2fc; stroke:none;" d="M800 881L801 882L800 881M1098 881L1099 882L1098 881M1112 881L1113 882L1112 881z"/>
<path style="fill:#00c2fc; stroke:none;" d="M706 882L707 883L706 882z"/>
<path style="fill:#00c2fc; stroke:none;" d="M801 882L802 883L801 882M1101 882L1102 883L1101 882M1109.67 882.333L1110.33 882.667L1109.67 882.333z"/>
<path style="fill:#00c2fc; stroke:none;" d="M1223 882L1224 883L1223 882M705 883L706 884L705 883z"/>
<path style="fill:#00c2fc; stroke:none;" d="M802 883L803 884L802 883M1107 883L1108 884L1107 883z"/>
<path style="fill:#00c2fc; stroke:none;" d="M1224 883L1225 884L1224 883M704 884L705 885L704 884z"/>
<path style="fill:#00c2fc; stroke:none;" d="M803 884L804 885L803 884M807 884L808 885L807 884M1096 884L1097 885L1096 884M1104 884L1105 885L1104 884z"/>
<path style="fill:#00c2fc; stroke:none;" d="M1225 884L1226 885L1225 884M703 885L704 886L703 885z"/>
<path style="fill:#00c2fc; stroke:none;" d="M804 885L805 886L804 885M1101.67 885.333L1102.33 885.667L1101.67 885.333z"/>
<path style="fill:#00c2fc; stroke:none;" d="M1226 885L1227 886L1226 885M702 886L703 887L702 886z"/>
<path style="fill:#00c2fc; stroke:none;" d="M1098.67 886.333L1099.33 886.667L1098.67 886.333z"/>
<path style="fill:#f47f76; stroke:none;" d="M1227 886L1228 887L1227 886z"/>
<path style="fill:#00c2fc; stroke:none;" d="M807 887L808 888L807 887M1096 887L1097 888L1096 887M808.667 888.333L809.333 888.667L808.667 888.333M1228 888L1229 889L1228 888z"/>
<path style="fill:#00c2fc; stroke:none;" d="M700 889L701 890L700 889z"/>
<path style="fill:#00c2fc; stroke:none;" d="M810 889L811 890L810 889z"/>
<path style="fill:#00c2fc; stroke:none;" d="M1229 889L1230 890L1229 889M699 890L700 891L699 890z"/>
<path style="fill:#00c2fc; stroke:none;" d="M811 890L812 891L811 890M814 890L815 891L814 890z"/>
<path style="fill:#00c2fc; stroke:none;" d="M698 891L699 892L698 891z"/>
<path style="fill:#00c2fc; stroke:none;" d="M813 891L814 892L813 891z"/>
<path style="fill:#00c2fc; stroke:none;" d="M1094 891L1094 899L1095 899L1094 891M1230 891L1231 892L1230 891z"/>
<path style="fill:#00c2fc; stroke:none;" d="M815 892L816 893L815 892z"/>
<path style="fill:#00c2fc; stroke:none;" d="M697 893L698 894L697 893z"/>
<path style="fill:#00c2fc; stroke:none;" d="M816.667 893.333L817.333 893.667L816.667 893.333z"/>
<path style="fill:#f47f76; stroke:none;" d="M821 893L822 894L821 893z"/>
<path style="fill:#00c2fc; stroke:none;" d="M1231 893L1232 894L1231 893M696 894L697 895L696 894z"/>
<path style="fill:#00c2fc; stroke:none;" d="M818 894L818 895L821 895L818 894M696 895L697 896L696 895z"/>
<path style="fill:#f47f76; stroke:none;" d="M1232 895L1233 896L1232 895z"/>
<path style="fill:#00c2fc; stroke:none;" d="M695 896L696 897L695 896M1232.33 896.667L1232.67 897.333L1232.33 896.667M694 898L695 899L694 898z"/>
<path style="fill:#f47f76; stroke:none;" d="M1233 898L1234 899L1233 898z"/>
<path style="fill:#00c2fc; stroke:none;" d="M693 899L694 900L693 899z"/>
<path style="fill:#00c2fc; stroke:none;" d="M821 899L822 900L821 899M1094 899L1095 900L1094 899z"/>
<path style="fill:#00c2fc; stroke:none;" d="M1233 899L1234 900L1233 899z"/>
<path style="fill:#f47f76; stroke:none;" d="M692 900L693 901L692 900z"/>
<path style="fill:#00c2fc; stroke:none;" d="M1234.33 900.667L1234.67 901.333L1234.33 900.667M692 901L693 902L692 901M691 903L692 904L691 903M1235 903L1236 904L1235 903z"/>
<path style="fill:#f47f76; stroke:none;" d="M822.333 904.667L822.667 905.333L822.333 904.667z"/>
<path style="fill:#00c2fc; stroke:none;" d="M1235 904L1236 905L1235 904z"/>
<path style="fill:#f47f76; stroke:none;" d="M1093 905L1094 906L1093 905M1236 905L1237 906L1236 905z"/>
<path style="fill:#00c2fc; stroke:none;" d="M690.333 906.667L690.667 907.333L690.333 906.667M822 906L822 914L823 914L822 906M1093 906L1093 914L1094 914L1093 906M1236 906L1237 907L1236 906z"/>
<path style="fill:#f47f76; stroke:none;" d="M1237 908L1238 909L1237 908M689 909L690 910L689 909z"/>
<path style="fill:#00c2fc; stroke:none;" d="M1237 909L1238 910L1237 909M689.333 910.667L689.667 911.333L689.333 910.667z"/>
<path style="fill:#00c2fc; stroke:none;" d="M1237 910L1238 911L1237 910z"/>
<path style="fill:#00c2fc; stroke:none;" d="M1238 912L1238 915L1239 915L1238 912M688 915L688 919L689 919L688 915M1239 917L1239 920L1240 920L1239 917z"/>
<path style="fill:#00c2fc; stroke:none;" d="M688 919L689 920L688 919z"/>
<path style="fill:#f47f76; stroke:none;" d="M823 919L824 920L823 919z"/>
<path style="fill:#00c2fc; stroke:none;" d="M823 920L823 941L1092 941L1093 920L1092 920L1092 927L824 927L823 920M1240 923L1240 927L1241 927L1240 923z"/>
<path style="fill:#f47f76; stroke:none;" d="M687 924L688 925L687 924z"/>
<path style="fill:#00c2fc; stroke:none;" d="M687 925L687 940L688 940L687 925z"/>
<path style="fill:#00c2fc; stroke:none;" d="M1092 927L1092 941L1093 941L1092 927z"/>
<path style="fill:#f47f76; stroke:none;" d="M1241 933L1242 934L1241 933z"/>
<path style="fill:#00c2fc; stroke:none;" d="M1241 934L1241 940L1242 940L1241 934z"/>
<path style="fill:#f47f76; stroke:none;" d="M687 940L688 941L687 940M1241 940L1242 941L1241 940z"/>
<path style="fill:#00c2fc; stroke:none;" d="M688 945L689 946L688 945z"/>
<path style="fill:#00c2fc; stroke:none;" d="M688 946L688 950L689 950L688 946M1240 947L1240 951L1241 951L1240 947z"/>
<path style="fill:#f47f76; stroke:none;" d="M688 950L689 951L688 950z"/>
<path style="fill:#00c2fc; stroke:none;" d="M689 952L690 953L689 952z"/>
<path style="fill:#00c2fc; stroke:none;" d="M689.333 953.667L689.667 954.333L689.333 953.667M1239 953L1239 956L1240 956L1239 953M690.333 957.667L690.667 958.333L690.333 957.667M1238 957L1239 958L1238 957z"/>
<path style="fill:#f47f76; stroke:none;" d="M1238 958L1239 959L1238 958z"/>
<path style="fill:#00c2fc; stroke:none;" d="M1237 959L1238 960L1237 959z"/>
<path style="fill:#00c2fc; stroke:none;" d="M691.333 960.667L691.667 961.333L691.333 960.667M1237 960L1238 961L1237 960M692.333 962.667L692.667 963.333L692.333 962.667M1236 962L1237 963L1236 962z"/>
<path style="fill:#00c2fc; stroke:none;" d="M1235 963L1236 964L1235 963z"/>
<path style="fill:#00c2fc; stroke:none;" d="M693 964L694 965L693 964M1235 964L1236 965L1235 964M1234 965L1235 966L1234 965M694 966L695 967L694 966M1233 966L1234 967L1233 966M695 967L696 968L695 967z"/>
<path style="fill:#00c2fc; stroke:none;" d="M1232 967L1233 968L1232 967z"/>
<path style="fill:#00c2fc; stroke:none;" d="M696 968L697 969L696 968M1231 968L1232 969L1231 968M697 969L698 970L697 969M1230 969L1231 970L1230 969M698 970L699 971L698 970M1229 970L1230 971L1229 970M699 971L700 972L699 971M1227 971L1228 972L1227 971z"/>
<path style="fill:#f47f76; stroke:none;" d="M1228 971L1229 972L1228 971z"/>
<path style="fill:#00c2fc; stroke:none;" d="M700 972L701 973L700 972M1226 972L1227 973L1226 972z"/>
<path style="fill:#00c2fc; stroke:none;" d="M702 973L703 974L702 973z"/>
<path style="fill:#00c2fc; stroke:none;" d="M1224 973L1225 974L1224 973z"/>
<path style="fill:#f47f76; stroke:none;" d="M1225 973L1226 974L1225 973z"/>
<path style="fill:#00c2fc; stroke:none;" d="M703 974L704 975L703 974M1223 974L1224 975L1223 974M704 975L705 976L704 975M1221 975L1222 976L1221 975M705 976L706 977L705 976M1220 976L1221 977L1220 976z"/>
<path style="fill:#f47f76; stroke:none;" d="M706 977L707 978L706 977z"/>
<path style="fill:#00c2fc; stroke:none;" d="M707 977L708 978L707 977M1218 977L1219 978L1218 977M708 978L709 979L708 978M1216 978L1217 979L1216 978M709 979L710 980L709 979z"/>
<path style="fill:#00c2fc; stroke:none;" d="M1214 979L1215 980L1214 979z"/>
<path style="fill:#00c2fc; stroke:none;" d="M1215 979L1216 980L1215 979M711 980L712 981L711 980M1213 980L1214 981L1213 980M712 981L713 982L712 981M1211 981L1212 982L1211 981M713 982L714 983L713 982z"/>
<path style="fill:#00c2fc; stroke:none;" d="M714 982L715 983L714 982z"/>
<path style="fill:#00c2fc; stroke:none;" d="M1209 982L1210 983L1209 982z"/>
<path style="fill:#f47f76; stroke:none;" d="M1210 982L1211 983L1210 982z"/>
<path style="fill:#00c2fc; stroke:none;" d="M715 983L716 984L715 983z"/>
<path style="fill:#00c2fc; stroke:none;" d="M1207 983L1208 984L1207 983z"/>
<path style="fill:#00c2fc; stroke:none;" d="M1208 983L1209 984L1208 983M716 984L717 985L716 984z"/>
<path style="fill:#00c2fc; stroke:none;" d="M1205 984L1206 985L1205 984z"/>
<path style="fill:#00c2fc; stroke:none;" d="M1206 984L1207 985L1206 984M718 985L719 986L718 985M1204 985L1205 986L1204 985M719 986L720 987L719 986M1202 986L1203 987L1202 986M721 987L722 988L721 987M1200 987L1201 988L1200 987M722 988L723 989L722 988M1198 988L1199 989L1198 988z"/>
<path style="fill:#f47f76; stroke:none;" d="M1199 988L1200 989L1199 988z"/>
<path style="fill:#00c2fc; stroke:none;" d="M724 989L725 990L724 989M1196.67 989.333L1197.33 989.667L1196.67 989.333M725 990L726 991L725 990M1194.67 990.333L1195.33 990.667L1194.67 990.333M727 991L728 992L727 991z"/>
<path style="fill:#00c2fc; stroke:none;" d="M1192 991L1193 992L1192 991z"/>
<path style="fill:#00c2fc; stroke:none;" d="M1193 991L1194 992L1193 991M728 992L729 993L728 992z"/>
<path style="fill:#00c2fc; stroke:none;" d="M729 992L730 993L729 992z"/>
<path style="fill:#00c2fc; stroke:none;" d="M1190.67 992.333L1191.33 992.667L1190.67 992.333M730 993L731 994L730 993z"/>
<path style="fill:#00c2fc; stroke:none;" d="M1188 993L1189 994L1188 993z"/>
<path style="fill:#00c2fc; stroke:none;" d="M1189 993L1190 994L1189 993M732 994L733 995L732 994M1187 994L1188 995L1187 994M733 995L734 996L733 995z"/>
<path style="fill:#00c2fc; stroke:none;" d="M1184 995L1185 996L1184 995z"/>
<path style="fill:#00c2fc; stroke:none;" d="M1185 995L1186 996L1185 995M735 996L736 997L735 996z"/>
<path style="fill:#00c2fc; stroke:none;" d="M1182 996L1183 997L1182 996z"/>
<path style="fill:#00c2fc; stroke:none;" d="M1183 996L1184 997L1183 996M736.667 997.333L737.333 997.667L736.667 997.333M1181 997L1182 998L1181 997M738 998L739 999L738 998M1179 998L1180 999L1179 998M740 999L741 1000L740 999M1177 999L1178 1000L1177 999M741.667 1000.33L742.333 1000.67L741.667 1000.33z"/>
<path style="fill:#00c2fc; stroke:none;" d="M1174 1000L1175 1001L1174 1000z"/>
<path style="fill:#00c2fc; stroke:none;" d="M1175 1000L1176 1001L1175 1000M743 1001L744 1002L743 1001z"/>
<path style="fill:#00c2fc; stroke:none;" d="M1172 1001L1173 1002L1172 1001z"/>
<path style="fill:#00c2fc; stroke:none;" d="M1173 1001L1174 1002L1173 1001M745 1002L746 1003L745 1002z"/>
<path style="fill:#00c2fc; stroke:none;" d="M1170 1002L1171 1003L1170 1002z"/>
<path style="fill:#00c2fc; stroke:none;" d="M1171 1002L1172 1003L1171 1002M747 1003L748 1004L747 1003z"/>
<path style="fill:#00c2fc; stroke:none;" d="M1168 1003L1169 1004L1168 1003z"/>
<path style="fill:#00c2fc; stroke:none;" d="M1169 1003L1170 1004L1169 1003M748.667 1004.33L749.333 1004.67L748.667 1004.33M1166.67 1004.33L1167.33 1004.67L1166.67 1004.33M750 1005L751 1006L750 1005M1164.67 1005.33L1165.33 1005.67L1164.67 1005.33M752 1006L753 1007L752 1006M1162.67 1006.33L1163.33 1006.67L1162.67 1006.33M754 1007L755 1008L754 1007M1160.67 1007.33L1161.33 1007.67L1160.67 1007.33z"/>
<path style="fill:#f47f76; stroke:none;" d="M755 1008L756 1009L755 1008z"/>
<path style="fill:#00c2fc; stroke:none;" d="M756 1008L757 1009L756 1008M1158 1008L1159 1009L1158 1008z"/>
<path style="fill:#f47f76; stroke:none;" d="M1159 1008L1160 1009L1159 1008z"/>
<path style="fill:#00c2fc; stroke:none;" d="M757.667 1009.33L758.333 1009.67L757.667 1009.33M1156 1009L1157 1010L1156 1009M759 1010L760 1011L759 1010z"/>
<path style="fill:#00c2fc; stroke:none;" d="M880 1086C901.715 1086 922.317 1083.81 943 1076.66C947.959 1074.94 960.735 1071.68 962.184 1065.81C963.775 1059.37 954.325 1043.84 952.424 1037C950.899 1031.51 950.641 1014.38 946.397 1011.03C942.604 1008.03 933.343 1010.7 929 1011.28C914.997 1013.17 901.096 1016.92 888 1022.2C883.767 1023.91 876.388 1026.03 874.071 1030.33C871.716 1034.7 876.661 1043.56 877.845 1048C881.4 1061.33 881.069 1072.56 880 1086z"/>
<path style="fill:#00c2fc; stroke:none;" d="M1154 1010L1155 1011L1154 1010M761 1011L762 1012L761 1011M1152 1011L1153 1012L1152 1011M763 1012L764 1013L763 1012M1149.67 1012.33L1150.33 1012.67L1149.67 1012.33M765 1013L766 1014L765 1013M1147.67 1013.33L1148.33 1013.67L1147.67 1013.33M767 1014L768 1015L767 1014M1145 1014L1146 1015L1145 1014z"/>
<path style="fill:#f47f76; stroke:none;" d="M1146 1014L1147 1015L1146 1014z"/>
<path style="fill:#00c2fc; stroke:none;" d="M769 1015L770 1016L769 1015M1143 1015L1144 1016L1143 1015z"/>
<path style="fill:#f47f76; stroke:none;" d="M770 1016L771 1017L770 1016z"/>
<path style="fill:#00c2fc; stroke:none;" d="M771 1016L772 1017L771 1016M1141 1016L1142 1017L1141 1016M772.667 1017.33L773.333 1017.67L772.667 1017.33M1138.67 1017.33L1139.33 1017.67L1138.67 1017.33M774.667 1018.33L775.333 1018.67L774.667 1018.33M1136.67 1018.33L1137.33 1018.67L1136.67 1018.33M776.667 1019.33L777.333 1019.67L776.667 1019.33M1134 1019L1135 1020L1134 1019z"/>
<path style="fill:#f47f76; stroke:none;" d="M778 1020L779 1021L778 1020z"/>
<path style="fill:#00c2fc; stroke:none;" d="M779 1020L780 1021L779 1020M1132 1020L1133 1021L1132 1020z"/>
<path style="fill:#f47f76; stroke:none;" d="M780 1021L781 1022L780 1021z"/>
<path style="fill:#00c2fc; stroke:none;" d="M781 1021L782 1022L781 1021M1129.67 1021.33L1130.33 1021.67L1129.67 1021.33M782.667 1022.33L783.333 1022.67L782.667 1022.33M1127 1022L1128 1023L1127 1022z"/>
<path style="fill:#f47f76; stroke:none;" d="M1128 1022L1129 1023L1128 1022z"/>
<path style="fill:#00c2fc; stroke:none;" d="M785 1023L786 1024L785 1023M1125 1023L1126 1024L1125 1023M787 1024L788 1025L787 1024M1122.67 1024.33L1123.33 1024.67L1122.67 1024.33M789 1025L790 1026L789 1025M1120.67 1025.33L1121.33 1025.67L1120.67 1025.33M791 1026L792 1027L791 1026M1118 1026L1119 1027L1118 1026M793 1027L794 1028L793 1027z"/>
<path style="fill:#00c2fc; stroke:none;" d="M794 1027L795 1028L794 1027z"/>
<path style="fill:#00c2fc; stroke:none;" d="M1115.67 1027.33L1116.33 1027.67L1115.67 1027.33M795.667 1028.33L796.333 1028.67L795.667 1028.33M1113.67 1028.33L1114.33 1028.67L1113.67 1028.33M798 1029L799 1030L798 1029z"/>
<path style="fill:#00c2fc; stroke:none;" d="M1110 1029L1111 1030L1110 1029z"/>
<path style="fill:#00c2fc; stroke:none;" d="M1111 1029L1112 1030L1111 1029M800 1030L801 1031L800 1030M1108.67 1030.33L1109.33 1030.67L1108.67 1030.33M802 1031L803 1032L802 1031z"/>
<path style="fill:#00c2fc; stroke:none;" d="M803 1031L804 1032L803 1031z"/>
<path style="fill:#00c2fc; stroke:none;" d="M1106 1031L1107 1032L1106 1031M804.667 1032.33L805.333 1032.67L804.667 1032.33M1103.67 1032.33L1104.33 1032.67L1103.67 1032.33M806.667 1033.33L807.333 1033.67L806.667 1033.33M1101 1033L1102 1034L1101 1033z"/>
<path style="fill:#f47f76; stroke:none;" d="M1102 1033L1103 1034L1102 1033z"/>
<path style="fill:#00c2fc; stroke:none;" d="M809 1034L810 1035L809 1034z"/>
<path style="fill:#00c2fc; stroke:none;" d="M810 1034L811 1035L810 1034z"/>
<path style="fill:#00c2fc; stroke:none;" d="M1098.67 1034.33L1099.33 1034.67L1098.67 1034.33M811.667 1035.33L812.333 1035.67L811.667 1035.33M1096.67 1035.33L1097.33 1035.67L1096.67 1035.33M814 1036L815 1037L814 1036M1093.67 1036.33L1094.33 1036.67L1093.67 1036.33M816.667 1037.33L817.333 1037.67L816.667 1037.33M1091 1037L1092 1038L1091 1037z"/>
<path style="fill:#f47f76; stroke:none;" d="M1092 1037L1093 1038L1092 1037M818 1038L819 1039L818 1038z"/>
<path style="fill:#00c2fc; stroke:none;" d="M819 1038L820 1039L819 1038M1088.67 1038.33L1089.33 1038.67L1088.67 1038.33M821.667 1039.33L822.333 1039.67L821.667 1039.33M1086 1039L1087 1040L1086 1039z"/>
<path style="fill:#f47f76; stroke:none;" d="M823 1040L824 1041L823 1040z"/>
<path style="fill:#00c2fc; stroke:none;" d="M824 1040L825 1041L824 1040M1083.67 1040.33L1084.33 1040.67L1083.67 1040.33M826 1041L828 1043L826 1041z"/>
<path style="fill:#00c2fc; stroke:none;" d="M827 1041L828 1042L827 1041M1080 1041L1081 1042L1080 1041z"/>
<path style="fill:#00c2fc; stroke:none;" d="M1081 1041L1082 1042L1081 1041M1078.67 1042.33L1079.33 1042.67L1078.67 1042.33M1075.67 1043.33L1076.33 1043.67L1075.67 1043.33M826.333 1044.67L826.667 1045.33L826.333 1044.67z"/>
<path style="fill:#00c2fc; stroke:none;" d="M1072 1044L1073 1045L1072 1044z"/>
<path style="fill:#00c2fc; stroke:none;" d="M1073 1044L1074 1045L1073 1044M1070.67 1045.33L1071.33 1045.67L1070.67 1045.33M1067.67 1046.33L1068.33 1046.67L1067.67 1046.33M1064.67 1047.33L1065.33 1047.67L1064.67 1047.33M825 1048L825 1052L826 1052L825 1048z"/>
<path style="fill:#00c2fc; stroke:none;" d="M1061 1048L1062 1049L1061 1048z"/>
<path style="fill:#00c2fc; stroke:none;" d="M1062 1048L1063 1049L1062 1048M1059 1049L1060 1050L1059 1049z"/>
<path style="fill:#f47f76; stroke:none;" d="M1060 1049L1061 1050L1060 1049z"/>
<path style="fill:#00c2fc; stroke:none;" d="M1056.67 1050.33L1057.33 1050.67L1056.67 1050.33M1053.67 1051.33L1054.33 1051.67L1053.67 1051.33M1050.67 1052.33L1051.33 1052.67L1050.67 1052.33M1047.67 1053.33L1048.33 1053.67L1047.67 1053.33M1044.67 1054.33L1045.33 1054.67L1044.67 1054.33M1041.67 1055.33L1042.33 1055.67L1041.67 1055.33M824 1056L824 1065L825 1065L824 1056M1038.67 1056.33L1039.33 1056.67L1038.67 1056.33M1035.67 1057.33L1036.33 1057.67L1035.67 1057.33M1034 1058L1034 1062L1035 1062L1034 1058z"/>
<path style="fill:#00c2fc; stroke:none;" d="M1033 1064L1034 1065L1033 1064z"/>
<path style="fill:#00c2fc; stroke:none;" d="M1033.33 1065.67L1033.67 1066.33L1033.33 1065.67M825 1069L825 1073L826 1073L825 1069M1032.33 1069.67L1032.67 1070.33L1032.33 1069.67M1031.33 1072.67L1031.67 1073.33L1031.33 1072.67M1030.33 1074.67L1030.67 1075.33L1030.33 1074.67M826.333 1075.67L826.667 1076.33L826.333 1075.67M1029 1077L1030 1078L1029 1077M1028 1078L1029 1079L1028 1078M827 1079L828 1080L827 1079M1027 1080L1028 1081L1027 1080M1026 1081L1027 1082L1026 1081M828 1082L829 1083L828 1082z"/>
<path style="fill:#00c2fc; stroke:none;" d="M1025 1082L1026 1083L1025 1082z"/>
<path style="fill:#00c2fc; stroke:none;" d="M953 1083L954 1084L953 1083M956.667 1083.33L957.333 1083.67L956.667 1083.33z"/>
<path style="fill:#00c2fc; stroke:none;" d="M829 1084L830 1085L829 1084z"/>
<path style="fill:#00c2fc; stroke:none;" d="M951 1084L952 1085L951 1084M959.667 1084.33L960.333 1084.67L959.667 1084.33z"/>
<path style="fill:#f47f76; stroke:none;" d="M1024 1084L1025 1085L1024 1084z"/>
<path style="fill:#00c2fc; stroke:none;" d="M829 1085L830 1086L829 1085M949.667 1085.33L950.333 1085.67L949.667 1085.33M963.667 1085.33L964.333 1085.67L963.667 1085.33M947 1086L948 1087L947 1086M966 1086L966 1087L969 1087L966 1086M1021 1086L1022 1087L1021 1086M830 1087L831 1088L830 1087M945 1087L946 1088L945 1087M970 1087L970 1088L973 1088L970 1087M1020 1087L1021 1088L1020 1087M942.667 1088.33L943.333 1088.67L942.667 1088.33z"/>
<path style="fill:#f47f76; stroke:none;" d="M974 1088L975 1089L974 1088z"/>
<path style="fill:#00c2fc; stroke:none;" d="M975.667 1088.33L976.333 1088.67L975.667 1088.33z"/>
<path style="fill:#00c2fc; stroke:none;" d="M1018 1088L1019 1089L1018 1088z"/>
<path style="fill:#f47f76; stroke:none;" d="M1019 1088L1020 1089L1019 1088z"/>
<path style="fill:#00c2fc; stroke:none;" d="M831 1089L832 1090L831 1089M940 1089L941 1090L940 1089z"/>
<path style="fill:#f47f76; stroke:none;" d="M941 1089L942 1090L941 1089z"/>
<path style="fill:#00c2fc; stroke:none;" d="M979 1089L979 1090L982 1090L979 1089z"/>
<path style="fill:#00c2fc; stroke:none;" d="M1016 1089L1017 1090L1016 1089z"/>
<path style="fill:#00c2fc; stroke:none;" d="M1017 1089L1018 1090L1017 1089z"/>
<path style="fill:#00c2fc; stroke:none;" d="M937 1090L938 1091L937 1090z"/>
<path style="fill:#00c2fc; stroke:none;" d="M938 1090L939 1091L938 1090M984 1090L984 1091L987 1091L984 1090z"/>
<path style="fill:#00c2fc; stroke:none;" d="M987 1090L988 1091L987 1090z"/>
<path style="fill:#00c2fc; stroke:none;" d="M1014.67 1090.33L1015.33 1090.67L1014.67 1090.33M935 1091L936 1092L935 1091z"/>
<path style="fill:#f47f76; stroke:none;" d="M990 1091L991 1092L990 1091z"/>
<path style="fill:#00c2fc; stroke:none;" d="M991 1091L991 1092L995 1092L991 1091z"/>
<path style="fill:#00c2fc; stroke:none;" d="M995 1091L996 1092L995 1091M1009 1091L1010 1092L1009 1091z"/>
<path style="fill:#00c2fc; stroke:none;" d="M1010 1091L1010 1092L1013 1092L1010 1091M833 1092L834 1093L833 1092M932.667 1092.33L933.333 1092.67L932.667 1092.33z"/>
<path style="fill:#f47f76; stroke:none;" d="M1002 1092L1002 1093L1005 1093L1002 1092z"/>
<path style="fill:#00c2fc; stroke:none;" d="M929.667 1093.33L930.333 1093.67L929.667 1093.33M926.667 1094.33L927.333 1094.67L926.667 1094.33M835 1095L836 1096L835 1095M922.667 1095.33L923.333 1095.67L922.667 1095.33M836 1096L837 1097L836 1096z"/>
<path style="fill:#00c2fc; stroke:none;" d="M918 1096L919 1097L918 1096z"/>
<path style="fill:#00c2fc; stroke:none;" d="M919.667 1096.33L920.333 1096.67L919.667 1096.33M837 1097L838 1098L837 1097M915.667 1097.33L916.333 1097.67L915.667 1097.33M838 1098L839 1099L838 1098z"/>
<path style="fill:#00c2fc; stroke:none;" d="M910 1098L911 1099L910 1098z"/>
<path style="fill:#00c2fc; stroke:none;" d="M911.667 1098.33L912.333 1098.67L911.667 1098.33M840 1099L841 1100L840 1099M905 1099L905 1100L908 1100L905 1099M842 1100L843 1101L842 1100M900.667 1100.33L901.333 1100.67L900.667 1100.33M845 1101L846 1102L845 1101z"/>
<path style="fill:#00c2fc; stroke:none;" d="M893 1101L894 1102L893 1101z"/>
<path style="fill:#00c2fc; stroke:none;" d="M894.667 1101.33L895.333 1101.67L894.667 1101.33z"/>
<path style="fill:#f47f76; stroke:none;" d="M896 1101L897 1102L896 1101z"/>
<path style="fill:#00c2fc; stroke:none;" d="M848 1102L848 1103L851 1103L848 1102z"/>
<path style="fill:#00c2fc; stroke:none;" d="M851 1102L852 1103L851 1102z"/>
<path style="fill:#00c2fc; stroke:none;" d="M885 1102L885 1103L889 1103L885 1102z"/>
<path style="fill:#f47f76; stroke:none;" d="M889 1102L890 1103L889 1102z"/>
<path style="fill:#00c2fc; stroke:none;" d="M856 1103L856 1104L864 1104L856 1103z"/>
<path style="fill:#00c2fc; stroke:none;" d="M864 1103L864 1104L870 1104L864 1103z"/>
<path style="fill:#00c2fc; stroke:none;" d="M870 1103L870 1104L879 1104L870 1103z"/>
<path style="fill:#f47f76; stroke:none;" d="M879 1103L880 1104L879 1103z"/>
</svg>
